<mxfile host="app.diagrams.net" modified="2022-10-27T08:24:37.955Z" agent="5.0 (Windows NT 10.0; Win64; x64) AppleWebKit/537.36 (KHTML, like Gecko) Chrome/106.0.0.0 Safari/537.36 Edg/106.0.1370.52" etag="xGkBYV0qQ-kwJajDEeyC" version="20.5.1" type="github">
  <diagram id="EQJrn4mkll5aVIvLPgm2" name="第 1 页">
    <mxGraphModel dx="1468" dy="950" grid="1" gridSize="10" guides="1" tooltips="1" connect="1" arrows="1" fold="1" page="1" pageScale="1" pageWidth="827" pageHeight="1169" math="0" shadow="0">
      <root>
        <mxCell id="0" />
        <mxCell id="1" parent="0" />
        <mxCell id="vA187BcENQ-o6K3mdunK-1" value="" style="shape=image;verticalLabelPosition=bottom;labelBackgroundColor=default;verticalAlign=top;aspect=fixed;imageAspect=0;image=data:image/png,iVBORw0KGgoAAAANSUhEUgAAA4QAAAJgCAYAAADS7K0bAAAAAXNSR0IArs4c6QAAAARnQU1BAACxjwv8YQUAAAAJcEhZcwAADsMAAA7DAcdvqGQAAPeTSURBVHhe7J0FmBzF1oYLEixIcEmA4O7BHYJruLhd+JGLy4UAFw1+kYsT3N3d3SVA8JDgAUISJDgJSWD/fSvzDbWd2WRnd1Zm+3ufp57urq7u6Tlz5tQ5ZT1RTS3BGGOMMcYYY0zumLiwNcYYY4wxxhiTMxwQGmOMMcYYY0xOcUBojDHGGGOMMTnFAaExxhhjjDHG5BQHhMYYY4wxxhiTUxwQGmOMMcYYY0xOcUBojDHGGGOMMTnFAaExxhhjjDHG5BQHhMYYY4wxxhiTUxwQGmOMMcYYY0xOcUBojDHGGGOMMTnFAWEJfvjxx7DNLnuEBbuvFLccG2OMMcYYY0x7o8EB4Z33PhADpFJprU22CJ989nmhpGkIyAu5Ib++b7xZyDXGGGOMMcaYlsM9hC2MAsGNtto+fD1kaCHXGGOMMcYYY1qeRgWEpx53dBj4xsvF9PQDd4d5556rcNbUB72sDgSNMcYYY4wxbYWK9hD+74KLisNIex3dO4wYOTLmp3Py0uGlDJVUeaXsnL3sfL6vhw6L986WT4dgktLPZ6trKPNe/w/q3CN9poaQfk8Sx+Vw/WUXhT133blwNC6pXDyc1BhjjDHGGNNcVDQg3G/P3cKmG6wX9+9/5LHw7vsfxP0rr78pvP3e+3H/9BOOi72JBHH/O79PzEuh3F4H9aoTFArOrbVxz3hvQd6KPTYcp+eNMg89+kTh6G8os+XOu9W5B3l7HPDvCQaFCk4vv+b6Qs5YOE4D0PrYcvNNYo/q8t2XLuSMC/e47a57CkchPPfSy4U9Y4wxxhhjjKksjQoIjzrxlDo9ZAqGpph88rDPHv8Xusw2ayxHYENv3IOPPh6PCRYXX3ThuA/LL7tMeOvFp4tDTxmKCgR5Tz37QtzPouGq9LKllMp/ue9rJYO0JRdbNLzy5MN1PpOg8O4HHor79ZEGtnxO+nn1BaDlggy3+UfPuI8ct9hko7hvjDHGGGOMMZWm4ovK0Pu38frrxn2CpHMvviwGWwQ3BIsEPDDdtNOGXgfsWzyGpZZYrBhMfvbFF3GbwjnKwPzzzh0DO6gv/4uvBoeRJQLCXgfuFz8f1l5j1WL5vq/3K9kzCfQeKrBluKd6+dLPK/XMjYF7E2x6bqYxxhhjjDGmOanIojL/O+WEOoHd7jvvUAySnn/plbjdf8/dxwlusq+ymNCCKzPNMEOYfrqxgVxKffmlIHicYfrpCkchTF773HPO3rVwVD/fD/+h+GwMEdUzM1xVvYZDhw6b4LBRY4wxxhhjjGkrVLyHsD6yvWcEgww9NcYYY4wxxhjTOjRLQJjOtRP0qmnFTHrRmN8HzCvUPMKH7ri5OGS0uaCXj94+wfEbb78T9+kppMewFPQq6tkYMpr2kCple0qNMcYYY4wxpi1T8YCQoE+rcBLsXXb+WXEfWGSGYJB5fczvy8KiLuMbMlop9ByQfuZKyy9Xb0BHMNh9ySXifhrciutvub3e+Yfl4tdOGGOMMcYYY1qCRgWE2VVGSQwBTV8lQQDFIjLLd1+mzqsoWImTBV1YYVR5S62yVryHAsnmptRnMueRBWbqg0AxXUF153/tW+f73//wozG/qRCo+rUTxhhjjDHGmJagYj2Eo0ePDqeceU5xqCgrjbKIDIGUXqMAF15+ZVyxM31nIbB/5/VXNfuQUe5/3umn1PkcPvvaSy8srjxaH3yfu264urhgTsq2td9xQtc3hFRePKNfO2GMMcYYY4xpLiaqqaWw326h1+3Yk/4bewYJsq644By/zsEYY4wxxhiTe1pslVFjjDHGGGOMMW0LB4TGGGOMMcYYk1McEBpjjDHGGGNMTsnFHEJjjDHGGGOMMePiHkJjjDHGGGOMySkOCI0xxhhjjDEmpzggNMYYY4wxxpic4oDQGGOMMcYYY3KKA0JjjDHGGGOMySkOCI0xxhhjjDEmpzggNMYYY4wxxpic4oDQGGOMMcYYY3KKA0JjjDHGGGOMySkOCI0xxhhjjDEmpzggNMYYY4wxxpic4oDQGGOMMcYYY3KKA0JjjDHGGGOMySkOCI0xxhhjjDEmpzggNMYYY4wxxpic4oDQGGOMMcYYY3KKA0JjjDHGGGOMySkOCI0xxhhjjDEmpzggNMYYY4wxxpic4oDQGGOMMcYYY3KKA0JjjDHGGGOMySkT1dRS2K+Xk046KYwZMyZ06NAhHnMJaeKJJ47bv/76K+6b8vjwww/DkCFDwkQTTRRmnnnmsMACC4SOHTtGeZrG8/PPP4d+/fpFnUS2yy23XJhiiimirpqmgTxJf/75Z+jRo0dYddVV4zEgX+2b8njrrbfCvffeG//7qQ1Apthd7K9kbxoO8nvxxRejPJHdwgsvHGaccca4b3vQND7++OMwePDgKMuZZpopLLjggq6/KoT+98cee2whxxhjmpcGBYS9e/cOV111Vfjll1+KTp+CQfZJOIimPEaPHl2sPDH+k0wySVGmcgwt1/JBdqNGjYpyRJ7ZYJB8SPNMw5DM1ltvvXDwwQeHlVZaKR67Qahp0IBxzjnnhAceeKBoE9SgkdoC62z5jBw5smgLJptssuL/XyBnydw0nAnVX+RZro1DMvzpp58KOcYY07w0KCA84YQTwnnnnRc22GCDMNVUUxWdPy61I9h4vvrqq9gzMP300xd7WnD6VJGyb/mWz++//x7efffd0L9///B///d/UZ6pLBVkZx1DM2GQ5cMPPxwWX3zxcPjhhxcDQkidQ1Meb775ZjjzzDPD888/HzbbbLPwxx9/xOAFp1t6a30tH+qo9957L7zxxhth4403DrPOOmvUU8mSfQUxpjzoHaT+6ty5c1h99dVdf1UIVHHEiJHhuuuuK9ZVxhjT3DS4h/Dcc88NO+20U9hxxx3DbLPNFivRFFeo5XP99deHa665JnTp0iXss88+0bmmAqA3AOyoNI5PP/00HH300eH9998PvXr1Cttuu210UkiWZ9N4/PHHoy1geDMB4corr1w483fvoWVcPvQQnnHGGeHVV18N//73v8Mmm2wS5SgbYFvQOAhMDjjggBhoU3ftvPPOMSgEBSuWbeO4+eabw5VXXhmnO1B/rbbaanFos+uvpvHDDz+EG2+8MY4YUCObMcY0O7VGe4KcfPLJNdNMM01NrdGvqXW2a2qDlphqjVU8r60pj7PPPrtmrrnmqqkNBGvuuOOOmtrKtCjX0aNHF0qZcunfv3/NCiusUDPllFPWHHvssTU//fRTUa6SsWkctQ5gzSKLLFKz+eab19Q62XX++8gV+Zryeeutt2pqA5aabt261fTp02ccXbWNbRzIb+ONN462YI899qgZMGBA0RawlXxN+VxwwQU188wzT83yyy9fc+utt7ab+ovnLzdVkqFDh9b06tWrpkOHDoUcY4xpfho0nqPW4MWWPra11xT3dWwaBy3UyFIyTRPnLNvGIfmhnzrWVsk0DmRXSi9THTblg/yUUr2tdbBLyts0HEYGSIapflpXm0a2hzVN1VZ/8axKIs2rL4lSeU2lkvcyxpgJ0eCAMGucFMyQTOORXCVLVSqWbdORHLOOi2k80lFkiqMN0lmwfBsH8sPOIj/JkK3srGka+u9n5WnZVgbkSEptQTWQPq/2lfSd0Jlsyn5fpfQ+jYVraQji/sYY01I0KCBMDWOKDJYNV2WQnKEpFYoZK79UnpZrZahPfpKvaTxZXYVSeaY86tNZ24KmkZUfOlpKd9siPLueP93nmbNBXyl0Li0L9d23HHRfY4xpSRpkdVIDJ0Nomo7kmspU+5Zx05G+QipXy7bp0IJNAsu2MpSys2meaRrSTclWx6bxpLoKbV22PG/6n9LzZwO7csneo9TnlAP3kH01xpiWoMEBYdagYbAaazzN30i2peRrGo/kqflYwnJtGqmeprLM6q8pD9kAEnKVPNVTYL1tPJKltgKZWq5NR3qb0hblmuqB9psSBNYH99P/Nv0sbRtCtt4yxpjmxuMSjDHGGNNuSYMyUhq0NRf19RYaY0xbxAGhMcYYY9olaTBGao5ewfpQ4KnPBm2NMaYt4YDQGGOMMe2ONAgjtWQwKBwUGmOqAQeExhhjjGlXpMEXqTWCQeGg0BjT1nFAaIwxxph2Qxp0kVozGBQOCo0xbRkHhMYYY4xpF6TBFolArLWDQaFn0bOBtsYY05o4IDTGGGNMu0EBF6mtBIMiDQhJxhjTFnBAaIwxxpiqJw2w2G/oUNHPvxsRDr15YOhx+ut10pYXvBV+/H1ModTfHHLTgHHK7n7le+HtL34plKgfnkdDR4UDQ2NMa+OA0BhjjDHtAoIrJQKvCfHsgOFh2d4vh/MeGxT30/TMB8MLperyzIAfxil77Qtfh+6192E7IdK5hCRjjGltHBAaY4wxpqpJA6uGBoOw2xXvx17As7ZfMIy5er066fuL1g7TdupYKPk3/U5caZyydx6wVOg8Rcdw6M0DYo/jhHAvoTGmLeGA0BhjjDFVD0GVUkMCQgK3Qd+PCJstPXM4aL1uhdzGsfkyM4ddVu0Sg8uGDB11L6Expi3hgNAYY4wx7QIFVw2ZOzio0JO31JxTxy08M2B4uOSpLwtH5bHGQtPHbUPnEoKDQWNMW8ABoTHGGGOqFgVV6m1r6HDRLKPG/BU2Prtf2P/6D8Ldbwwr5DacUsNLx0faSwjaGmNMS+OA0BhjjDFVTRpUNaR3sBSTdpw47Lv2HGGZbtOE9RabsZDbfPCcDgaNMW0BB4TGGGOMqXoUVDU2IIQzt1sw9D1+xTDlZB0KOWNXIj3x3k/CcwN/KORUBg8bNca0FRwQGmOMMaYqyQZT5QRXS845TVxQhgVhSsECMXrP4In3fBLWPu21+GqJ+lYR7TbjFGH1Baer936lcDBojGkLVF1AiPH8888/C0ch/PXXX4W9sci42siWz5gxY+rILytDy7ZppHJjP9Vj9lP5oteWs2lNsvqX1VnshbDOlkdWTun/n/20XiPfcp0wyEg6mPa8pbLLyrHzFB3CXQcuVRsY/r2oTMqJ93wcewcJ8ngtBcEjC8bsfuX7hRJ1mas2IHzqP8vVe78sGjKafU5jjGlpqrKHkInYGH5SdvI4BjatXIF9VRRpRWv+Btl07NgxbuX0ZYfdcA4nMM2XXLMyN2NJZSK5SXc7dOhQlDX7yFbypKzKW66mJZG+Zf/nJNlewF6MGjUqlk911vpaP1nZcsz/Pl1cBFuAjGVTSbYF40dySXU2zUv3pb+pXOvj3n7fxncL3nXg0vG1FASPS8wxdQwS6T1sDvwbG2Nag6oKCFNDyb6CQSrONCAhP61ASRyTsgGkGYtkJ7mq4kSuqkDJx1kRnJNcyWdrxkWyhVQX2U+DQhxsZCz54yhmA3Bjmhv0UjqrfekssJVNmGSSSeKxdHb06NHFc6YukmUqW8kO2Oo8tkA2lXxkSvDNsRkX5CO5Sv9SWbGv85K3zqe+QxbeUTjXTFPUWT2UXkD48ffRcdtU0s+u7zmMMaa5qaroSAY8NZoYcww8ifNpZcA+qdR1pi5yOiQjyVGyJV+yZF+Bio5NaVLdkwzZpvrKvoJC4Hyq15avaUnQOSils8pHd9HRVL85VhDDsakLcknlhVz1/yeffclO8lM5thrBYcZFdlLyIkEqb8lWqLz0uhQaInrtC1/HY3oG73vzm9hrqMCwKeh50ucyxpjWoKoCQoFhlxFnn0QFQJBCK+r1118ftttuu7DOOuuEddddN/Tu3Tt89dVXxcrBjAsVEvJJe/rYko+jR8v/22+/HQ466KDQo0ePsN5664UNNtggvPnmm/GcKY0qemRJQm9HjBgRXnvttXDmmWeGfffdN+oouvqvf/0rXHrppaF///5h5MiRxd9Ev4cxLUEpnf3xxx/DU089FU455ZSw++67F23AAQccEO3tF198UbQD1tnSlJIreQMGDAgXXXRROOSQQ8Kmm24aZbvzzjuHs846K7z66qvh119/tS2YAJIPyDdAbgMHDgxPP/10uOuuu8K1114bbr755vDEE0+EDz74INpY/AZWDv1pxN8Ncim9e84bg7/dr3wvdPy/x+LiMnDVHovFbSkIGhuKdMIYY1qbqgoIMZ5pxZhWAuxTEVC53n///eHRRx8Nzz77bHjmmWfCe++9FysHtbSacUE2WblqH7777rsoz7vvvrso1+effz7mE4hbrqWRDJEvDjP6ee6550bn75JLLgm33XZbdFheeOGF6LScc845oVevXuGyyy4LH330UZ2eQ2NaCtlKGtheeeWVcNppp4WjjjoqXHHFFVFP9f+/9dZbw+mnnx4bim655ZYwePDgeK0Zl9QWkL755pv4PyeoPv/888NNN90UHnvssSjXBx54IAaJRx55ZDjjjDPc8NYApHd//PFH6NevX7Sr1FVvvfVWDAwHDRoUPvvss9iw+dxzz4UHH3ww3P/i+zHIO++xz+O1WVgchkVi6Clk7iDbJ49Ytt5VRAkGx95vUCFn/LjeNMa0FaquhzBbqXIMBIM///xzbP175513wm+//RbzgfIyvCpv6iK5SK4CuVLB0mtFD8GwYcOKv4F+B8t0/CAfnDkaJq688sroVBMAfv755+Gnn34qypxeGLVo01N43XXXxeP09zCmuUFfSfSgvPjiizFooRewb9++4csvv4yNa0Bjxffffx/ef//92AB33nnnhTvvvDOOxpC9NXVBrsgNGV1zzTUxEHzyySdj4w+yVOPaL7/8EoMX5I8duPjii8Mbb7zhBqJ6oJ5Ctoy+QBcJrqmzhgwZEmWJ/UWuyA/fYOjQoeHDDz8ML7/+TrweudcHQSGLyfQ7caW4XWOh6Qtn6uenBi44w/Po/wbaGmNMS1NVAWFqOCHdx3nBkaZl9euvv46GNuuUaCiJGRdkg7yyMlavFr2uDHOk4lSAonLZa8zfIFMSPSf33XdfuP322+PwOsE5ZK+gEDkicxzEO+64I15DT4IxLYX+3zjM9GA//PDDdXRQdjXVWXoS6XkheKH38IcfKvsC7/aAbAGNQI8//ni46qqroowlT0CWHOs3oB7Ddjz00EMxKCcgN+MiedEbSDB47733Rp8gi34DoC779ttv476CxpbGAb4xpq1QdRGSDDpOtIIYWqwfeeSR2PPCUJHff/+9UPpvHAxOGGSJQ4Ks2NIziJNHBUugrd5BJf0OZvzgmOCo0BMgh47VGbt06RK23nrrcOCBB8Yhd5tvvnmYbbbZirKlh4Br+A3kOJAv50eQZ0wloReF3il6shUMTjbZZGH++ecPO+ywQzj44IPjUEfmEU8zzTRFHaQXnGDnk08+Keop57I6mledJej49NNP43BFgkHZ0umnnz7Kcu+99462YNttt42yZk43smJoPiM0+D3Um0V+KVuQV9kS1KF7r7/+ehx9QX016aSThllnnTUstdRSYcUVVwzdu3cPc8455zgL9NCAobmaLQW/HYnfPyV7bIwxLUHVevMYUipGHGyGKTH0hgpTcwVBhlWVbl4rynJQzyoVJPMsCLLpJcCJgawD4oBwwuCY0LtKT6t0cLrppgs9e/YMJ5xwQpyDxQIzRx99dFxgBucQkPXHH38cXnrppWKPC9frHulvYd02lYRe7Jdffrk4/BP7iSNNMHjSSSfFeW2kI444Iqy00kphiinGrriI/aDxg4SDDqV0Nq/6Su8g8wGxB4A8CFpYVOo///lPnKuJXFkIbcsttwxdu3Ytyo/eLAIe9WqBznGfvMpU9TyjKgiYGXqPPBjKPNNMM4VlllkmrL322tG2smDPCiusEGaZZZZ4jRjy/S/F+fAguWo/3Y6Pt74Yq/PdGrACKf+VrI9ijDGtRVV58zLIGFKMN3Narr766nD88cdH54UeLcCwqoKUoS3HqOcRyYo5GMxbY/EYVrkjGGTIUoqcOvXQguVaGmTFYgbvvvtudOSQsXpa/vnPf4aFFlooOoS0WC+xxBJhiy22CPPNN1+xl5ZraPGmtxCkz6DgPc0zpqmgs6zCyBwsAhh0a8opp4yONUHK3HPPHfUVPca5pjcLx5ty6C36znw35m+B9BNdRWchjw1JfH/+zwSEBNqAHAhOdtxxx9h7NfXUU8fRA/POO2/YaKONwnLLLRdlDYx8IZAk0BGSbba+yxvoFXIlKKQOQwY0ptGIgT1Frsh68sknj3mLLLJI7H3tNvnP8fqXhnYKH38xpDjMVHJEpiTljQ9eVH/di2NfT7HUnFPH7fjAX9HnTOjexhjT3FRdrcyQGyaEM0T0uOOOiy2qtGYzhwWDT+XJVgYWY67KUvtmXJALFSlDblnpkp4rhiviEAJypQIFyTYrV7amLjgqOH9yjmGqqaYKSy+9dHSsBbIjMFxsscVisEgZwGlgTizOjWQs+cupttxNJaGXhBEB9LRI12aeeebYYEGPlUDvcLAJWtBlAkTysCMM2dOKo6l+5llnkQULx2i0BbJFHgTaCyywQPz/A7IhKJxnnnmiPWA0AfC7cD2NS5RJZci99FvlEfwCvUpCcqCRAvvbqVOneCzQ2dlnnz0OdabsGtMNDiP/6hC2u3VE2OvageHEez4Zm+79JFzwxJcl5cp7CTmvdOjNA8OyvV+O7yxkJVIWohkfPK9+M92/1OcYY0xLUVUBIQaTVlKGMp588slxiCiVJBUtDvRcc80VunXrFg2+KkxVmjK8CmpMXZALw28JsG+88caiM4eTQgs2zsmMM84Yy0qmnE/lytbUZfjw4bF3D0cO+SA7HGdaqTt37lwoNVY/cV4YLkpAyFbONA42w045r3voGiVjKgW6xhxAhnyiayR6WHCi1VAh0Ensw4ILLhh7EdFZoCEJnZeNSHU23eYJpjMoUE5lQr01wwwz1KmbkBsyJ9DWsFFkTT4NTAoogHMKtPMIMkGm6CwNaMiDhA3FP8jW+cgN2RIwIrfVO38Rg8LfRk8Ubntj+N+BXm1QeMhNA8Kg78ddnIb8YuBYm3jNxOffjQgHrjvneN9RCDybAtc0GWNMa1K1tQhGXoYe477hhhvG97oxfAkHBUOvRIVBxUCFijE2pUFOyEvBHYELPVnMbTnmmGPC4osvHnsKOSfZI1cF5WZc6LnGwSYwFMgQnaUXQHJDpuTjVNMjQKMGoK+8ToVecPXYSKfZWp9NpcGpxsHW6yWAhiF0k/+9dBb9ky4T0LAPnCcY1D2ks+hqnnUWO4kdSEcLIBt6qpAvciHJvjIvc9ppp60ThBNI0MDElIlS8syrbNUrjb0VyA87muZJttRtnOcY1pj2y9Bnxc/CO4fNHn6/dM0w5ur1immuEvMBv79o7TpllM7eYaEwbaex/4P6yA4V1TNAum+MMS1J1QWEGHMcaYI79glYLr/88viuLFYRw5mmUkwDFCpNKlwFM6Y06llFtrRK//vf/45y3X333WPvAHKnZRrkeCBX8pGxGRd6tHHetMAGcmIIE/JEhlldRT8lTyWcQBzs1EFP9dgNHaaS0ADByqKai4UO0pvNsNH6dBY7oLJs0VV0Nl3xmXyBzuYNAgECQhaIQobIijqJXkDqMsmWJDiveosy2F/kSuOQynFOsiUv/W3yAN8ZeaCz6jlFtvQAElATECL7FMogV66lLFvKoPP16abk3RR4Pk1v0X8FtDXGmNai6rx4KjscanoEb7vttvh+JlZrxGHBwGPUMehZA4sxJ+XREWkotGAzl4UVL5HrkUceGRZeeOHo7CF3VaqpbOV8OCgpzU8//RQDOpw55EZCTtoqHzhGh3Fi0HFkK7mScCCAfMmda1PHwpimoqGeWb1in5TVWRowGJ5Hr4t0k3zgHuyneVwrXc4TBMcE2wrwSMiFrf7fyucYOdP7SuIY+wxsOQepvHUtKW8wCkPyk85pH1kR6El+wG+AjeU88gNtJT/uQRJNlSu2HB3gM9Nn1X2ben9jjGkKVVUrY5wZtrTWWmvFIYwsJa2hSmmFqMoyNeg6r3OmLlRWzL/k1Qfbb799nMemChMkO5KcEPIkX/I5NnVBPjgictoU4HGMbKWXIIdEDoOgd5HhUDiTkrt+B7DcTSWRzrKVrmpf//lUZ6WPymNLrzhzkukpVHlSnnUWOfD/J4FkIRmCtpJ31hbQw8QCU/Qych/Ky46kcs4TfG9kqICPfeVJPugnwZjsL6RyBews+oqMU1mqfFPgWXi3J8+h/4o+P2+/lzGmbVLXIrZxMJwEfwSFLHDCVoZVlaK2aRLpvqkLcqMnkACb3lYNW0S+aYVFxQaSJecs1/qR/LIykky15XwpeQNOTNZJAbaWvak06KEopV/SP2yBykoXldLARzqrlFedzX5/bVPZAPnsp7IVyDxrC9KyeUTfPytX8khpEEbAJ73MgmxVv1FWpPuNgc/jc/WcShzr3k39DGOMaSpVXYvUZ0xVIZiGk8qwvn1IZWs5TxjJCDmmCTiXypB85WXPaT+9Nr2XMZUi1Ts5riLVS+lfmiey5YBjXZNXUhmkciAQSeVFkgyVL5Sn63U+vV+eSOWRppQ0CCM4Yxh/S0Dwns4fTwNBJWOMaQvkt1nRmBZAzor2hRyBUg6BWrOFHAeuVwt2el9jKkkanGib1ccs6GyKyqQ6C3nWWb57KbkqCZUjT0FEtjzHluvfSGdTOaTyI6Gj2ico5AX/bJsDnoMhqgwT1Wenn0/Sb66tMca0Jg4IjWlGVPHLWZHDQl7WEeBcWhY4Znl0VsxjK7LljKkU9els6sQKzqms4FivomChmfSa9H55AzkgQ8lAiXylUqTyYsrErLPOGl9FkS2flssTyEENElm5Iu80pYEZr0Xp06dPeOGFF+KwTr2mgnNNgcXXWPWU3kF9nj6TlP5u9f3mxhjT0jggNKYZ0etOUnBWNI8ldV5I5NOyjDOh8zjVvE6FeykP7EyY5qCUU0wPTCmdBRbzyM7NYn4379djLrLKQ551Fjug/3BKKjfJVbaAoY3p8EYCCwLt9D2lJsQF0LK6hc6SlM9WgRlyo/eOV0A88cQT4ayzzgp9+/aNdlfny4HP4XciEGRF0zQQ1GcqGFQyxpi2hANCY5oRHDecFQWFOAI4ejgjpdC59GXKWkhJzjWkjiP75TowxtQHukZvCY6sdAxHudS8K+kz86TSZf1pxEj1HlKdxYHOGwSD9OzxPwbkAMgOeWT/wxwTXOh9kEBQwT2Qr9B1lGE/e588QI80tlb6RaKnDr1N85Afei2dFcj4vffeC/37948r5HKsV1ilMtU+vxc2msY7Xi1EIMj/g89IA0FSfcGgtsYY0xZwQGhMM4JTzIq4OHECxxmnA2cjdRAAR4PeFpwNneMevBQcpwcHI+tI5NG5Ns0HusoQZRxsnF/0DQc5fdVBqoPk8UoUnQN6B7kHuosznEUOdp4gIOR9jfT2p/AOPTUApXLlf62AEDhHMMmQUeRLsJ2WBwUseQIZsDI2NhKZSGcJ+EgcKyhTYAborCCP3wZbze9EMEjDHIEeej98+PD44nu2HJPPecpxfz4X26xtGgxqy2fos7U1xpi2ggNCY5oRgrjZZ589OhsCJ4L5K+pxkRNHIhgcOnRoncUO6LHBCaRXQOVShyJ1coxpKtNOO22Yc8456zRioI9p4CI9JGihh+Trr7+Oeg3oIvfAuU57taWjHKOzeYNe19lmmy0mZCG5fPHFF7GnScdsSQSCCkIE8pxjjjmK84kpl/732U+P8wDfl2G0c801V52eU+T2/fffF3sJBTpLQIcNThsxaMDQvFcFdGmAR6CYDfzYZvOU0PE0EEyTMca0NXJVK6vCNZVBlZvlWj841ThwOBtygnH0Bg0aFB0WOX+SI07KJ598Eh0WwLGgRwFnB4dEslZ5nBs7GKaSEMyhb/S6SM8I+njRPFuOSTr32WefRZ1Fr8lDz2eZZZbQpUuX4vBIUHldmzfocSUYpIFI35+ABPkR+DFyQL39yIhRBMiVc4BcCQQXWGCBYu8t6F7Z47zA9yWQm2+++aJ89P2//fbbaE/pyUt1jkYN5Prpp58WA0LsLI0g9DISECrQS4M9dDmblybylLLBIGhrjDFtkaoLCNNKj/20AoXU+CrJEcf4m9KUkitbJclSZbRFtjgyut7UhSAO55qgUHpIb8vrr78eXnnllTqLx9BL8Nprr4WPPvqo2HtI7+D8888fnR30l3tI1mx1T2MqBcHGQgstFHv40C/+5wQn6OY777xT7HHBRuBsP/vss+Grr76M+egkDRiLLLJI6Nq16zj2Oc86S9BAQEhAR9CADJHHW2+9FVe6pBFIcqK3lflsb7/9dnGuGwHJ3HPPHZZaaqloc1NbIGSb8wZDk5dccsnYACcZ0ICBjcWean4r+oguP/PMM3GL/MgjEOR6RnIg1zS4ywZ84wsAlXgGJcjr72KMqR6qrmbOGtbsceqAcA7jTB4pHb5k6lJKrmmeKk6hShDHJe0FMHVBbvPOO29YZpllotOBTHGcabm+/PLLw8svvxwdQeaz3HfffTEPB0b6S6v18ssvHx1JnJD0d8j+ZsZUAnRsiSWWCIsvvnjsLQT+5++++2644YYbwptvvhl7Cunh5viyyy6rda6/L+rswgsvHJ1rAkrsBHAO8q6zjBRYccUViw1EBCoE1ddcc0146qmnwpAhQ6IteO6558KVV14ZXnrppaLsCFZWXXXVaBNkczln2Y6Vw0orrRQbMmhE45hGNQLtO+64I3zwwQdRrp9//nm49tprY8KOUg4d7d69e2zEoDEDO6vATvsK/FTvZY+V+A2UIN03xpi2TFU31WaNrSpGoGcGA61eQQw3522cJ0ypSkyyQ6YMqUGuJOQMlmv94MitvPLK0emQA8LwOpy+9dZbL/akMEdwjz32CG+88UZxQRmcPpxrHB05OTgxOCkp5JOMqRTo4zrrrBN7poH/PYtp3HbbbWGNNdaIDRQENYcddlicA4deorP0Li633HIxoNSwRs6h8ylq1Mgb9GDRw4ds0/8yK1zusssuUd7IfosttggPPfRQcRgu5RiCu/7668cFZUC9hKntzbMtQB833XTTYs82ibmt559/fmxUQ640cpx++ulRl5EbiWGmPXr0iA13mqctmes+JEiPSbpHug/pvjHGVAPtbuyOjDC9MFS4GGqQw2LHuXFIrsiR3gI5eDgllmv9IBtktfTSS4cddtghOsvSRQI/5Iau0pqNXCVHztOTsO2224YFF1ww5mdlnB7r9zGmqaBLOMNrrrlm2GabbeIQR+ma7Cq6i86mCyNhazfaaKOw+eabx3ly5FE2RffJq74iI3r4/vnPf8agkEY17IOG22JPsQPIVY2ZQLCy2267xZEGpeQKkm0eQZ9oQOvZs2fYcsst4xxWQCZqvERnka0a3DjH77HzzjvHhjka7iRDzktHKUPid9K+zqflssfGGFNNVGVAiNFOk/IwxFSUMtrK1zmwsa4fyUopRcc4ishQx5Zrw6CHDwfwqKOOChtvvHGUH7LEAZQs2ZKYD0OZgw8+OKy99tqxpwX5pnqNnmd/A2MqBbrFcFEaJHr16hV7qQH9Q2cF5dBFeq122mmncOCBB8aghZED6CVOtBqPrLNjQTYMqT3hhBNiYAjIiKBF8gH26bFaYYUVwiGHHBK23nrraBtkC7iGfcqlcs2rbJEBQ3L33XffcNBBB8WGNMlCwXUqKwJA9PWAAw6IczPVI5jqbEoqV8k5TcYYU820mx5CDLIcZgx+1vnQcdrqahqGZAtyWkhZuUre5m+QDwlZsWojvS44guecc04M+mj5BxwQHBh6ZBjS1Lt377DWWmvFa1K4j9BvYkwlQV8BXWPeKz1+p512WjjxxBPj0Dr1/tEjQ2Cz6667hgsuuCAcfvjhcVi0gpZS5FlnkZlsAY08DB09+uij47zh7bbbLiy66KLFxh96EbEPxx13XLQH9HyxkmYqV+3LFqfn8kZar6OfBNpnn312bMxg3iV6jJx4DRAjL/bee+8od4JBhumqAQOycpRs02SMMe2NiWqN5AS9+OOPPz46sAx5o9KnNU2VUGuQfna6T6Xw8ccfx+WkWclRxpv5LlS2VAbKawuce+65MfF8yJV5I61JfXLFiWFFtoEDB8Z3kekcQQw9Bzgq7LcVZ2/AgAHRSWWFPuRKooeuNUBWWehhYSGZr776Kr4nS0v5E/wx1Al9oHcmXThClPp90v3m5qqrrgpnnnlmHEaIXJkbyWe35DO0R/r16xfOOOOMuMjQEUccEfbZZ59Wk6uClhSG2qGrzMliMRlWvqQMvSzoLPNgmR+nnpW2orN8FwLaJ598MvZgorOaF9nSSCZ8b+3zfMgSW4CNxS5gH5Alc+GYN6h344n0PpCVK7SEbPv06RPOOuus+JzIdauttiqcaXmQoxqDgS3DbnllB+91RWdZxRmbis4ynxCdTV9ToWuhlPxSOTcn1LHYAgLa9JmMMaY5qcrm2vqMMvn0sjDxnnkE//jHP2IiaCEYBBvY+snKVbIin6E4tLQiTyp+tgSwtLziBFLWsh0XZCfZsE9iaBJOFL0rDCNFjugr+yx6gKwpU59MdS/tG1NJUsdaekZAQnCy7LLLRvsq28oCMyx8RGOGGoRSndT1kHed1fdXwE1CZsiOFS4ZPUDwii1AxvS20jhE75VklpUdx1m56jhPIEf1Ekq2BHvdunWLQ2433HDDqK+bbbZZrMdoFKAnW6RyLSW/rNyNMaa90a7G78ghUYWQGvbssZkwklcqO+3rGJB7emzqkpWXjpWXHisP0uPsfkr22JhKIt1L9UzH9f33s+WzjO9cnpCcUnmkedlzkOaVOpdX0u+eykgor9Q5qC9fjO+cMcZUO1UfEI7PsJdKChrN+EFWWSRD7YPk6aCwflK5pWRlmZLmlTovxnfOmMYyvkAv3aaM71zKhM63Z/jupeqgCcluQudhfOfyQCmd5ThNWZRX6lzKhM4bY0y14+jIGGOMMcYYY3KKA0JjjDHGGGOMySkOCI0xxhhjjDEmpzggNMYYY4wxxpic4oDQGGOMMcYYY3KKA0JjjDHGGGOMySkOCI0xxhhjjDEmpzggNMYYY4wxxpic4oDQGGOMMcYYY3KKA0JjjDHGGGOMySkOCI0xxhhjjDEmpzggNMYYY4wxxpic4oDQGGOMMcYYY3KKA0JjjDHGGGOMySkOCI0xxhhjjDEmpzggNMYYY4wxxpic4oDQGGOMMcYYY3KKA0JjjDHGGGOMySkOCI0xxhhjjDEmpzggNMYYY4wxxpic4oDQGGOMMcYYY3KKA0JjjDHGGGOMySkOCI0xxhhjjDEmpzggNMYYY4wxxpicMlFNLYX9etlhhx3CvffeG9Zcc82w3HLLhamnnjpMNNFEQZeyb8rnueeei2maaaYJa621Vlh88cWLMp144onDX3/9Zdk2gmHDhoVbbrklDBkyJMoVvZ1sssmibJErW5JlWz4fffRRePDBB0OXLl3C0UcfHTbZZJOiXAGd1b5pOM8880w47rjjwoABA8Kmm24aFllkkZiPLP/888+oq9bX8kEfr7766qi3yyyzTFh77bXDDDPMEM9JnrYFjeOFF14Izz77bJhqqqmijV1iiSUKZ1x/NYXff/89vP766+H++++P/31jjGkJGhQQ4lS/+uqrYdpppw2TTjqpK9AK8fPPP4dff/01dOjQIQbZnTp1KsqW5Aq1cYwePTp8//33UX7IlIBbgaDkaR1uHMjs22+/DXPMMUcMYLbddtvCmb8dbMu1fB566KHwn//8J3z88cdh5plnjnnoqPTWNA5kh76OGjUqTDHFFKFz586hY8eOtgUV4JdffinWX1NOOWW0tchReuv6q3EgvzFjxoShQ4c6IDTGtBhlBYQLLbRQNPqgy1QBmPIZPnx47MWihXXOOeeMlSjyVI+AaTw4gO+8806YbbbZwiyzzBImmWSS6KDYwW46AwcOjEFLGhAiU3TWets4FBB++eWXYbHFFovytI2tDMj0m2++CQsuuGAMXAhgkKcDlqaB7AYPHhx++OGHaGenm266YiDogLBpUH/RS+j/vTGmpShryOj//d//hZVWWikGMCk2+o3jiSeeCPfdd18cfodjPffcc0dZeohY02DIzSuvvBL69OkTVl999bD77rvHHlgclBTLt3wYenfllVfGnhaGjG688cYxH1nKlFiu5cOQ0d69e4dBgwaF/fbbLyywwAKFM2OxTBsH/3nswMsvvxy23377aA8Y6YKukizXxkMweMcdd4QPP/ww2oENNtggBtvUX2lAaBmXx4gRI0Lfvn3Dueee6x5CY0zLQUA4IY4//viaaaaZpmafffap+eSTT2pqjVRMtQa/mEz5nHPOOTVzzTVXTW2QXXPnnXcW5QqWaeP56quvag488MCajh071qy55po1w4cPL8pVemsax9VXX12z0EIL1Wy22WY1L7zwQpSl9NZybTz9+vWr2W677Wq6detWUxvAFOWprWXbOJDfJptsUtOpU6eaPffcs2bgwIF1ZGq5Np6HH364Zq211qrp2rVrzQknnBBliWxhzJgxcWvKZ+jQoTWHHHJITW1wXcgxxpjmp0GrP9Qa+tjKR6tfrcGPeey75a9ppDJkW/t7FLeSsykf6SpbWqzRX5LkaxoPchTIU0i+pnEgO+kniTlE0uP0vCkfzRlElqkMLdOmgTxlZ0nUWbIP0lvTONTTaowxLUWDrLYcE7ZUrmzBTnbTUAWK/KgAkLFkKifGlI8cPeTKAjPSW3Dg0jSQpZw99pXQX7BsG4fkmtpZIRtBMuXDfCxI5SqZSpdN+ei/zhZ5IkvVW9RttgWNA7lRbxljTEvSoNpQrVW0WoMcEwyXkmkc6sEaOXJkPE4dFLcQNg70EdmlTrTy5HSbxpP9vyNjdBjHW/I25SG5oaPSU2Eb2zSQLYHKH3/8MU7PK3pLMuUj2aX/eY7RX+RtW9A4kBuLoBljTEvSIM8YA0/gQpJzQh6Gizwb/sajIJvXeQAVqpwVZGvKB/lRocqxRj9JclLsYDeNUrJDzpNPPnnhyJQL/3vkihxJ6C7QU4AdIM80DuSKHLEJyFKyxhbIPpjykV5KbyXPtBfWNA7VXcYY01I02OJgoGTgXZFWBuQnGcpBSYNAy7dxIEvpKtusHFO5m6aBrE1lkN7KwQb3tDQd1VXS1WyAbfk2DuQpmbLNytEBTdNwQG2MaUnKsthZo++K1Jh8IQfQNA+Wr6k2rLPGGFP9uAnPGGOMMcYYY3KKA0JjjDHGGGOMySkOCI0xxhhjjDEmpzggNMYYY4wxxpic4oDQGGOMMcYYY3KKA0JjjDHGGGOMySkOCI0xxhhjjDEmpzggNMYYY4wxxpic4oDQGGOMMcYYY3KKA0JjjDHGGGOMySkOCI0xxhhjjDEmpzggNMYYY4wxxpic4oDQGGOMMcYYY3KKA0JjjDHGGGOMySkOCI0xxhhjjDEmp1RtQFhTU1PYG8uff/5Z2Avhr7/+qnOe/Wx5My7ITYxPZpZlZUjlbZ01bR30MdXZ1OZaXxtGVoZZmVmGjSe1oWzrk6VlbIwx41K1AeFEE00Utxh3KgKOVdFqXxWEK4AJIxlJniAZi1TWQvLVNWbCpPJKZc2+5Kk8Y9oCqV6m+jlmzJi4rzwzYZAb8iplM1M7kMJxfdeYsfKRvUxtaorkl+ancmVrjDF5paoCQhlvoX22GHlVptqX4dc2bdE2dUGGE088cZ3KlLzxVZQqC5KxqQuyS+WnfbbS0VRnU8i3zpqWppTO6lg6yjH2QsfSX/Q1tQvmb1KZpv959uuTGdek5yRvMy6SpfYlu1TuKVm5WrbGmDxTVQGhDDYGXglwTFIw9DLwukbGv77KIe8gJ8k03Rfal6zTyhQkZ1MayTMrR4E8UwcbVFZbY1qSVGfRy6xuorMdOnQo5IzVYetq/Uh+khHHWTuaypr9rDzT38DUJZVrVnbaT+uv9LzlaozJO1UVEJaCFunvvvsu9O3bNzz44IPhxhtvDFdffXW48847w0svvRS+/PLL8Mcff8SyWSfc/I0qRMmIypI8Va7IeciQIVHGV111VUzXXXddGDp0qHuxxkMpR2PUqFHh66+/Di+++GK47777wrXXXhvlec8994TXXnstfPPNN7EM11pnTWuR6u6IESPCZ599Fp599tlw1113hWuuuSbaWezBW2+9FX788cc4fFSNGqmzbcZFskVOkhlBCjJ85513wu233x5tAjJ+8sknw08//RTLm9JInqlc2Sep/qKueuihh4r1F3YXO+z6yxhjqiwgzDoZv//+e3RGMOynnHJK+M9//hP22muvsOeee4aDDz44nHTSSdHwP//882HYsGGxwlWFYeoi2cg5kZyQOed+/fXXKMejjjoq7LHHHuFf//pX2HvvvUP//v2L84jMuKQ6y/4PP/wQXn755XD55ZeHE088MfTq1SvKE7099NBDw3//+99www03hNdffz0MHz48XmOdNS0Neqf/Po70U089FS666KJw/PHHh0MOOSTqLP//ww47LJx55pnhtttuC++99160E9bZ0iAXwMaSOGYLBCXImsYggu2DDjoo1mOk888/PzbGmfqZUP3122+/xQbitP5Ctu+++24YPXp08bcxxpi8UlUBoYw8lefPP/8ce1hwUHBKaPkjOBk5cmSsFHBiHn300ehgH3vssbH3hTwb/tJILqpAIa1UP//88/D000+HTz75pOjMcF6OjOVaGmSEbJATzt7DDz8cjjvuuHDCCSdEJxt5ch6ZDho0KOop+nryySeHJ554Inz//feWrWlRUp1lhMWtt94ajj766HD22WfHRiHyxIcffhhuuumm2Jhx1llnhVdffTX88ssv1tl6kFzYkmRj2WJHX3nllZhoDNI5/Ra2s/WTyrVU/fXFF19Ee/vxxx+PU3+RjDEm71TleDSGgDK07rTTTouBIMjAQ1p50vpHb8sFF1wQ7r333tiCbcZFc4HSClUwJPeFF16Iw8XolaUMsCWpVdaUBtnQgPH444+Hc889N8oSkJ3kRi+rdJbhopTt06dPeOaZZ+JwPWNaCv2n+d/T83fJJZfEYYwCnaWMdBawybfccku4+OKL46gNdNjUBbkpGEFuWTtLsPLAAw/EbdprxVbXyl6Yuoyv/qJRDZuLLc3WX2C5GmNMlQWEGHqCPVr7cFQIUFQRdOzYMUw99dRh5plnDrPMMkuYdtppw+STTx6NPtdQyTK09M033yxWBKYuyJfKEVnK6aOlmuCEuZn0BiBvVbiUNeNHOstwujvuuCP069ev6IBMMskkoXPnzmHWWWeNOsv+pJNOGq8hMS+W3pmBAwdaZ02Lge4R7DECg/mC2E7+9+jsZJNNFqabbrow22yzRVuLzcVeUB4dpYGOXu60F9H8DTIiIU/kBsj7q6++ivMFH3nkkTisHCiHzGVnHbSMH+SYrb+QJXMwqb8++OCDkvWX5WqMMVUWEGLAaeHDuWY+AAYfRwQjv+CCC4bLLrssvP/++3Ho3d133x022mijMMUUU0SDj1OOk0Jwox4XOT7cR5CXHucJvre+O1sqUwIS5ggxjIk85CjnENnJqTGlQWdZcOONN96I81WQITrWqVOnsMIKK0Q9ZdgoQ3JpsFh22WVjUAj0EuDEMOdQCyNJZ1PyrLOm8vD/ZngzASG2FP0iEQhuttlmMWhBX9FbRl7MMccc8RqgZ5DRG9ho9mUzSCnZ47yCXFnYhPnEzCtmrrtkg+1AfiTtm/qRrLRP/UUj3BlnnBF1GdL6S/vGGGOqLCCk8mRyPcHJgAEDYh4VJUEfi3Ost956Yfrpp4+t2DjWO+64Y1h++eVj5UAFwLA95sF99NFHxWtJCm64v47zCJUjQQgVJYE1c92oTOmhEshSDouDwQmDrD799NOoszjXgJxxolkEaZVVVok92aQ111wz7LLLLmHeeeeNckYXBw8eHIc70SsO0lnQsLI866ypPNhC/v/0UBOgAL3ZyyyzTNh///3D0ksvHRstppxyyrDJJpvERTqwu+giuk0jBnMJuRa9lH5yHp2FvDri+p8SLNMwSe/VdtttFwMX5l4K6iLkJfmZCYNOobvYXHSQIJs1BNgXyNT1lzHGjEtV1TRUjvS2MIQJo84xRn255ZaLTgoOihwPgsQlllgiLL744mGqqaaK11MJ41hr2CiVripotro2jyBP5MEQUeau7bPPPuHmm2+OrddUspJTGnyock23pi7IikYMAjvpG8PsaLBYdNFFi8ObOIee0ms4//zzxwAR6BGnJ4YGkFI6C5a7qST8x2nEYA4huoWeMaS5e/fuYb755isGc5xjaD4NGbPPPnsMGoGGN5xwbC1ldA/Is87ynbGT9PYTcGtVbEYPaCEeyUpyAv7zJF1vxiWtv5jzuu+++4brr78+2t366q+sXNkaY0xeqaqAkAVhGKqEkceoY8Ax8AwXZR5W2urMOYY4LbDAAqFLly5Fo08LNUNHqQh0D1AloW3eQI7IhVZVljknaObdV8gMuRJsE7CoAiWxz3VKeZXd+GDYEgHdt99+W9Q3GisI+maaaaZCqbEgT/R4oYUWCjPMMEM8Rv4sma4VclOdlcwtd1NJGC5Ko5t6rNA35rfOPffcMQBMQUfnnHPOsPDCC0f7IMeahrt0hVzpLjoLedRZvjO9gs8991w48sgj47w26jINB6fXFfkSWCMvEvIF/dclP1MX5MI8TF4/dd5558WF5Bpaf0muedRJY4wRVVW7UHHirKTvZMKI4zxrrqDyMPBUAix8gDMDVALcg6BSL/qlLPl5rwz4/vRGMayR4AXHRc4ewxj322+/6PSpR4tKFrlR4dICa0rDa1DQV5xjgQxx/BjajAwBfUWm00wzTeyNQXeB8zSEEKzjoCP7VGd1vTGVggYIevfSIYz0WGvRI+mc7IAWmdE5EvqO3mNT5GxbZ8f2ZNFIhJ0laNawb4bjHnPMMWHzzTePdRYyU8IOc52CQzMu6BV1FnqLj6D6i57rnXfeORxwwAFhkUUWKQ4TRW9B9VeeddIYY6CqAkKGfDIkhKFMIIeka9euxQBFlSbnMP44MjjeQOXKPehtoVIGyqVbrs9r5aAhX8iAOUGbbrppHNZEMLjqqqvGvKxTgtyRqykNjgkBNsPoAD1DJwn62E/1TTpL44YCbxIOOk5Oeo90m2edNZUHfWP+H8GcdJDeFf7/7KNrJJ1DV2nAUAAD6Co6yz2Acuk2a0fyAvJBXsiP/W7dusXhjb179w477LBDbHTDPqT/Z2RGWcnblAa5ArpFI8XGG28cjjjiiDjvdbXVVgszzjhjPJfKELlSh1muxpi8U1WePM41rarqkZLzwZwsyFaYnGc1RxxsoJKlRRAnRa2Cacpen0cIVLbaaqv4IurDDz887tOyihypTLOOHPJCzpKhqQu9LCT0DpAXDggONPKSDgvO4XyrEYMy6Cq6r3ukss67vprKQ2MZNlLOM4neP9nRVOfQQxxxvX5CeTS8MRrDOjsu/LexqczTPumkk2Lv1brrrht7Wfn/12dj2WbPmbrQu7rllluGo446KtZf2267bZyr7frLGGPGT1UFhAyv0XwLGJ+TIWeGylfONXk417RcM5QvvV77XJO9Vx7gu9Oqyop3Bx54YNhtt93CiiuuGIfjphWmAhjJyg7K+EFftbIiSI6Q1TXpLD0E6TwidJUheNwrvV5bOYvGVAIaH9ToJn2TrkGqt+QTxKhXW2UZ5kxgSWCYXq+t7Eie4Lvzv2aO8L/+9a9oZ7fffvs4z506Cplk7alkR/J/vH6QD8Pwt9566xhg77777mHllVeO9Rf6Ccg2rb+01b4xxuSZqqyVVWlqq8pSaXwGnhZrhpzi9Og6O9RjZUjlyas7llpqqdjinzptki1QNpUx+5ZhaZAJ8kl1VeictoLjVJYEggyVViMG55A3++l1xlQC9CvV16xuivrygYCQ0RwKCNFX6WyeIfBjQan1118/LtKjYEWkdlS/AUhunDfjgnyov+hpZcVx5mKnspLNBMpm9TCVuzHG5JGqql1ksNOtUkMNfFpO12b380haWUoWaRJZRzE9Z+pHckrlmZVf6sBIvtoHXatr0vLGVBLpWKpvIF0U6GCqp+l5XZvqaVo+b2RlKbmwzco4lSlwPq9yawiSJTKSnJVSSjXMGWOMqbWjhW1VgBFPK8jU2GfPQXqsfZEep9caU0lwQFI9TEn1LnsuewypjtZ3nTFNpZTOpnqW6qGoT1+VdAzWWWOMMaZtUXVdDKmTIQdDLaxyNHSO42zrazrfJR2SA7qfMZUm1VeQvqY6Cxyjo8pni64yr5D8bA9tek9jKk1WZ9NtVmcFxyxCo3lxKmd9NcYYY9omVRUQ4nTo1Qipc8FWTgqkDguLI6SLeuCkzDXXXHECupyYtLzuaUwlQF+lZ1n9yuqszjPvSot6APM555hjjjrzOuVop/czphIQzKX6lepYqrNpGea5pg1svKKiS5cucTVdXaPy2YY4Y4wxxrQuVRUQaulzORhyotMVQzXciXM41Sz5r3dhAedw0inHebZyUHBYUofHmKaSvgcT0C/0jaAPpLPAORovfvrpp+JqutJl9Q6yKJJ0Fn0lGVNJCOL0Cgl0j5Q2rGV1Fl1NXwfEeemmddYYY4xp+1RdQMjqYTgsKSzJj7OBc4KzwRbkyOB8s0/iHrxrjxZsAsOscyLHxZhKQAMGOqt3uAE6yZL8CvZSHeRYPYTSWa5FZ+nVxlHP6iwON/cyphJgX9E1bKUg6KNxrZTOsp+u2kxC53knnN5PSF4K+m2dNcYYY9oGVRUQ0tvCy3tnnXXWQs5YBg0aVHRIgC0JxxrHmx4XgZPDPeSgZ50SOTTGVAJeMj/77LPHBgiBXg4ePLjYSwjSWXq7eS3Kb7/9Vjgz1kGfaaaZij2NpXTWmErRuXPnOEQZ3UXX0C9eIzFs2LCS79RkBAbvdiVoVHnuoUa3UhBEWm+NMcaYtkFVBYSdOnWK81II6HAocD7oHfnyyy+jw5L2lLBlGNPnn38enRXAAcFBmWeeeeK9VFat3Tq2o2IqBT0kBIR6wT8Q9A0ZMiQ60uicerfZ//bbb8Nnn30WdRfIJyCcc845Y4OIeq+l/7rWOmsqxXTTTRe6desWe/mkl/QOEhCmw/M5h/6hy5988knUZ+klwSB2mgY4jiHVWf0XjDHGGNP6VFWtjHNBQMiiMIBDQhDYr1+/8Pbbb9fpcQGCwf79+xd7CBm6hJOy+OKL13HCU/LqWEsOkokSsCVfskm3zG3z8K/6IYjDuUbvJCMaL9BZdFNylbw/+OCD8NFHHxXnvdIryPXzzTffODrLVtcbUylogODl6QwbBfSLXuu33norfPrpp0V9kx6+/vrrcZQGvYfk0bPI9V27di2WERw7GKxrZ0H7pf7Lkhd21pRGckzlqrwskjFb11/GGDOWqqqZMeAMF+3evXvsceEYY07L9c033xyDQoba4Ti///774c477wx9+/YtVqQMY+LaeeedN1ayaeUBqijySH3fXbJJ5QTIj4Rs7eDVD7JB3xZddNHoYCNnhtbRo4LOEvwhQ3QWXb3lllvChx9+WNRZ9H3ppZeOQ/hSnQX286yzpnlAp2g0I6jTfG0aMQgI77333hj80RBHAPjUU0+F66+/Ptpg8mDuuecOSyyxRJxDKNuAfoP1dfykdhZZaYVi5Md+aoPN39SnV5JnKldAL0muv4wxZixVZwlxqgnqll122WjgqQgw6s8880w4/vjjw7777hv+9a9/haOOOircfffd4euvv47XUZnSS7P22msXh++pxyWtTLIVRx6RTErJBbnR06pjypCXljV/g4wI6lZcccWw0EILFXJDHBL6wAMPhF69eoW99tor6iz6+/jjj8d5r8gTOeOUc62CSXQ268DwGcZUEkZhrLrqqrEhAtAx5r3SYHHIIYdEnSWdeuqp4ZVXXolDSdFPRnEstdRSMSBkuLSutc6OC/LK2k3JRYtH8X+X/EqVN+MiOZWSFXmqv1T/u/4yxpgqDAhxOBZccMGw5ZZbFh1sDDrzBJ988slw4403hquuuio89NBDxZZswClfd911w0orrRTnEapCSB0VOyn1owoWGUlOqbwsu9IgMxYwogFj4403jsM/Ad1j7uuDDz4Yrr322qiz6C9zCOWoMEwUncW5Vu8Ayc6LaU7QL4Z9rrXWWrEBjRVuyaNnmx5tegmvvvrqcM0114Tnn38+9h5KL5dccsmosxqFYZ0tD+REQmZZLMPKIH1MZVxK3sYYkyeqLiDEkLPoAU4HvSrLLLNMMV9bGXsSrYEMYdpiiy3C9ttvH+cgCgWDKgu63pQG2ShgAe1bZvWDbFhYZrPNNgs77bRTWHjhhYv56RZZooc0eiyyyCJhu+22C5tssklcYRRSOWd11phKgk4tsMACUQf/8Y9/FBsyRKqHwFzX5ZZbLuy6665hjTXWqDP/sJSdNaVBPshMskr3TdNBnthZIblKn40xJq9UVUCoilHDP3fcccdw6KGHhp49e8ZelBlnnLHofOCQ0JO43nrrhT333DPssccecSgT12L8SamjYv6Wr1IpVHFmzyuYMXWRLNE79PH//u//wv777x823HDDGBiip5xHF9HfxRZbLAaBDH1Gv3HKOWedNS2FdJaRFAR5NLyRevToEXut9ToKdJreQ+a4brXVVuGggw6KDW8sJpPqbCmbobw8IvkqiVQmWZlpmwYzpi6pTCUvSHUwlSv7Kuf6yxiTdzocz8SlCcD8POaJsNDAKqusEnvoQMa1JZEhBxY8oCeFYaAEiPTCsGXeFc+JY73DDjuEjTbaqLgoR0r6/HJgWhJkSmKuDc+rnqO2AvKQTHjPI0PDWJiHIIXhush+/fXXj4tHqGxLy7AULJH/0ksvhddeey2+roFeDlb7bA1SfWXLf4f/EfNgGcaMzrLlt19zzTXD5ptvHnsR2U8X5YCsbLP63BK8+eabUbbMw0Vn+V+l3880Dl7d8OKLL4avvvoqzt0jEGstuaY6q6CPoaDorewsIy1YKGmdddaJPYg777xzWGGFFaJ94Fo519lnl86mn9Gc8DnMe+RVLjQaorPpO0HbAqkchg8fHoMTgmoakLALyy+/fEzUE3yf1vjfl4KFsdBZVqBlSDw9w20J5CpdVP3Fq1RUfyHbDTbYINpf1f8toZMTgoXxkOvLL78c55UbY0yLUGssJ0jv3r1rag1pzd57713z6aefxrzaSituWxo+N/3sP//8Mybl6bzylSd0Ls1L0fUtwTnnnFPTrVu3mhVXXLHmrrvuKuS2Hlk5CfZTWWblPWbMmOL5tkCtU11z0EEH1XTs2LGm1kmp+eGHHwpnWgdklMpL8kvzSMhR+zoH7E9IZ1uKK6+8sqbWmarZbLPNal544YXiZ7fkM7RH3njjjZptt922Zs4556zp06dPq8qVz1TScSmdJa+t6yzPsMkmm9RMMcUUNXvuuWfNRx99VDjTemTlJFIZZ2WXyrqt8Mgjj9SsvfbaNV26dKk54YQTCrmtRyobyVH7yC/dT8+1tfpr6NChNYcccggtKoUcY4xpftpGU2MZ1D5zneEdtOyRdJzNF8oHtQZCmq/9ttBK2Bpkv3cqDxLHyD6VN8f0InCsPFMXyY0tcpT+SV7KR47APpCvMuPTWeUbUwnQp9TGcixbKp0kkdcYneXeedbZ9LunciGfRF4qt1SetYFL3DfjUp9OpXJ1/WWMMaWpuoBQTkjW+JOvbfacKgTtp6THabm8k5WFjuUASt46LvWbmLE0RGeFykjeSinpcfacMZUAfU31EtA18rQV0kG2aUpJj7P3zTOl5CgZp0l5LJJmJozkJnTs+ssYY0rjmtkYY4wxxhhjcooDQmOMMcYYY4zJKQ4IjTHGGGOMMSanOCA0xhhjjDHGmJzigNAYY4wxxhhjcooDQmOMMcYYY4zJKQ4IjTHGGGOMMSanOCA0xhhjjDHGmJzigNAYY4wxxhhjcooDQmOMMcYYY4zJKQ4IjTHGGGOMMSanOCA0xhhjjDHGmJzigNAYY4wxxhhjcooDQmOMMcYYY4zJKQ4IjTHGGGOMMSanOCA0xhhjjDHGmJzigNAYY4wxxhhjcooDQmOMMcYYY4zJKQ4IjTHGGGOMMSanOCA0xhhjjDHGmJzigNAYY4wxxhhjcooDQmOMMcYYY4zJKQ4IjTHGGGOMMSanOCA0xhhjjDHGmJwyUU0thf16+fe//x2uuOKK0LNnz7DjjjuG2WabLUw00USFs6ax3HDDDTF169Yt7LfffmG11VYrnBkLMm7Az2MyfPfdd+H6668Pffr0Ccsuu2w488wzwzTTTBPPIU/rbuN5+OGHw+WXXx7mmWee8J///CestdZahTN/66vlWz6vvvpqOOWUU0K/fv3CnnvuGW2t5GiZNp6//vorHHTQQVG+u+yyS0xdu3YtnB2L9NaUx2uvvRYuvvji0L9//7DVVluFPfbYo44srbONY/jw4eHGG28MV155ZdRfY4xpCRoUEOL0vfLKK2G++eYLnTp1igZ/4oknjluSDX/jGDp0aEyLLLJIWHXVVaPxl2zZ79ixYzHPNBz08eeff46VKs7fjDPOGGUJkq+dwMbRoUOHMHDgwDDTTDOF448/PmyzzTYxXzZA8jXl8dBDD4UjjjgiDBo0KCy88MJRjiT09s8//7SNbQLo6y+//BK23nrraAuwqaq/QPbWlAc6+frrr4f3338/NhJ37ty5KFfpruXaOEaOHBnlOmbMmEKOMcY0Lw0OCPv27RsrADl7XJY6gaZ8Ro8eHQ0+cqTyRLYc43ST58qgcaCPOCKkSSedNMpWMiXpnGkcOCs0Dh133HFh2223LcoU/WXflA8BIT2uBC+TTTZZUabAvm1s40FfkSV2QEEK8lTwYlvQOJAbCf2UnZV/QJ7rr8aDXv7222/+3xtjWowGBYQ9evQIL774YhzKNPPMMxedPl1qh6VxMIzp5ZdfDlNPPXWYf/75Y4BI4IIsJ5lkkihXegdMefz666/hvffeiw7JiiuuGHtfcViQqxxDZGtHsHyQ2a233hodv2OPPTb2EJayB6Y8GIpLQPjTTz9FOytHOytT29nyQF7o60cffRS6d+8eJp988qIs0WHsLdgWlA+92V999VXsdV1ppZXCYostFvORJXLH5mrflAd24KyzzrLsjDEtRoMCQnoCzjvvvDh/8OCDDw5zzjln0VCpRdCUzwUXXBAuvPDCGGQzT3OzzTYrnBnryJCQrx3s8qCXZe+99w7vvPNO6NWrV5QtAbYCQbBMG8dNN90U52TOO++84fDDD4/BtvTUNB7mDp5++umxkeiwww6L87HkTNsGNB5kyPy2p59+OvZmYwvQXcF5ZGv9LZ9LL700nH/++TEgPPTQQ8Pmm28eGzCxtcjVMm0cw4YNC+ecc070DWgkNsaYFqHW4ZggtQFhzTTTTFOz77771nz44Yc1tUa/cKamptbw1zk2Defss8+u6datW83KK69cc/fdd9fUGv+aUaNGxXOWaeP54IMPalZYYYWaySefvKZ37941v/76a9RTgWzTY9NwrrjiipoFF1ywZrPNNqt5/vnni/9/dNc623jeeOONmtqAJdqDPn361Pzxxx+FM2OxzjYO5LbRRhvVTDHFFDV77713rL+wsWPGjInytEwbT23AUjP33HPXLLfccjW33357zEvliYxN+dQGhDWHH354zUQTxfZ6Y4xpERrUhEcLKkNraPHTXCyovd69A01ALf+1TktMyJZeLJCMTeNAfiTpKPu1zkpxXovl2zjQWf3fJUO2sgvI2jQOyVF2VqC3nJO8TXnIptLbgn6mc91M05Beys4CdRl21jJuHPzfpavGGNNSNMhiY9gxUhj61DFJKwHTeFIHUDJFxsjbNA7ppZwSyVSBi6kMsgdyYizbxiE58p9HltmA0Ha26SjYlo0VyNeUTyrHNPhTfWZb0DiQW/r/N8aYlqBBASFGXw6LKgFVomlFYMojdfQkT1WiHFu2jUM6qoRMcbS1rzKmcZSSHXK1E9N00v8/oLfYAeWb8qG3CvnJ3rIveaY2wZQP8lMCNWIiU+WZ8rFeGmNamgYHhKnRF2nFahqP5Cp5psmUTyo7yTbrVFu2lQV5OiBsPKXsq3BAWFmQpeSZ7pvyycrOuloZ6rMFxhjTXDS4C0oOiypQJdN4UvllZWnZVpbUUbFsG0/WUbHjUjmQZXakAHprmgYyTOsukT025ZGVHcepvlq2TcO21RjTktjbMMYYY4wxxpic4oDQGGOMMcYYY3KKA0JjjDHGGGOMySkOCI0xxhhjjDEmpzggNMYYY4wxxpic4oDQGGOMMcYYY3KKA0JjjDHGGGOMySkOCI0xxhhjjDEmpzggNMYYY4wxxpic4oDQGGOMMcYYY3KKA0JjjDHGGGOMySkOCI0xxhhjjDEmpzggNMYYY4wxxpic4oDQGGOMMcYYY3KKA0JjjDHGGGOMySntJiCsqakp7NXdNw3HcmtZxqez/i1MW8Q62zxk5WpZlo9lZowxjadqA8JsBfrXX38V89Lj7DlTP6nMlFLqy4dSeaZ+kFeql+yTQDK2TE1bIdVX6WUpnTUNI5UV+5KtjtOUnjP1k+qnUkp9+VAqzxhj8kRVBYSpMZ9oooniluM///wzdOjQoXh+4oknHqcsKc0zdUEuqQxBMkuh0k1ln62ETV1KyQWZkVJ5s5/KMpUxyZiWopS+KS+1CegsthfIs42dMKkcgWNkmNZZ2foLLNvxg1xcfxljTOOpuh7C1HCzxbirAk0rUioHjjlPotIdM2ZMsTIwdcnKlKTAhQTkIVOgnCpX5bM1pZFepvJlH7nJKenYsWMdWaKzJMvVtDToo7apzgJb2YRJJpkkbqWz2FidM3WRLFPZIjPZVLY6n9ZfbJHp6NGji7+BqUtWpiRkpgSprClHvspK1sYYk1eqKiCU8QYMeuowY9z/+OOP6JCMHDmyuK8ygMOtysHURU6HKlbJTI4J+ciThGx///336KCoYjWlSZ0M6azkxT66qu2oUaPivhJyV6u3MS1FamP1/9Y+/3/0lK1sgPSVPGys7IWpS1PqL8pPOumktrX10JD6izxk6vrLGGPGpaoCQhl7VawK8N54441w1FFHhc033zzMNddcYZZZZgkrrrhi6NWrV3jqqafCL7/8UryWysGMC/JBNtleKuRLJYoT+NJLL4VNNtkkzDTTTKFr165h9tlnD88//3ysWE1pUp2VfH/77beolwcddFDYYIMNor6S1l577XD88cdHfcZhSa81pqWQgyydJX377bfhrrvuCnvvvXdYffXVw4wzzhhtwMYbbxzOOuus8PHHH0cbgc5ynXV2XNL/MwlbQF6/fv3CMcccE3r27BnmnnvuaAtWWGGFcMghh4THH388/Pzzz7Ecid/CjItkM77669VXXw2bbbZZsf6addZZw9NPPx3PGWNM3qm6HkIMv1r6Pvvss3D00UdHI3/ZZZeFZ599NgwbNiyMGDEiDBgwIFx99dVh9913D/vvv3947rnnbPjHg1pUARmD5M126NCh4ZlnnonOC8EKTgqBDTJVC7YZF8kQx4SW6ddeey06ejvttFO48cYbwyuvvBJ++umn2CuAbC+44IKw/fbbh2OPPTa89dZbDrZNi4Mzjb6SsKUPP/xw2HfffcN+++0Xbr/99qiXv/76a/z/v/jii+G0006LNvicc84Jn3zySbTNZlzS+os0aNCgYiB4ySWXRPuKnUXmAwcODNdee23417/+FWXPOeyHKc2E6q9vvvkmBn+vv/56rL+wueiwemJdfxlj8k7VNTdi3DH+H374YTjzzDPDVVddFYYMGRIDFLVQcx5DT88g5x566KHwv//9L1YIacVh/oahNYATmMoI5xAH5c033wxPPvlk+OGHH2I+ciZRnt+EZEqDbNBNgr+zzz473HnnnbHhAv3UsCWcEoJCHJUvv/wy3HTTTeHCCy+MQaJ11rQ0+t8/+OCD4bzzzguPPfZY7CUkCJQDzZYy2ASCmz59+oQrrrgi9hZiF8y4qP5CRtRfV155ZRg8ePB4669HH300lmVUgW1BacZXf2FXacR44oknivUXqA6jjDHG5J2qsoQy4LT23XPPPdGx/vHHHwtnx55XYMI+UDlQ5uWXXw7XXHNNDCTNuCA3yY/KVXLEMaFVVT0DIGdPZbQ144KskCsO4B133BEdaxw9wTkcEraSP472d999Fx555JEo9y+++KJQ2pjmRzpLI9Ctt94aGzLoVRGldJZght6t2267LfYoYqNNXZAVsuW/Tf3Ff5sAhXydly1VnuovhjsSPDLyxYwLcpP8svUXQ/CRNfoMqr8UCFJW5Y0xJq9UXdMYrX0Mp6G1D6eDSgDDzpyAAw44IFx66aXhuuuuC8cdd1xYdtlli6vg0QJLxcCwUpwX4FpVDoI8VcZ5QxWqKkd6A+hVZTgu8tZcTJVhXy2zpjTIiaFJOCM0SsgBnGyyycICCywQh4bSUIHOHnrooWG++eYrypQeGa5BbzV0lGuzOisH3phKgM4ShDAclEYgNWBMOeWUcW7bySefHPWVIfn77LNPnE/INUDvNjYWG62eRPSzlM7mEeoeGiWZG5jWX126dIlDchk6imx79+4dll9++biQDPAbYEPSOW+SbfrfZz89zhN8b/RQukgjBlNFqL/oZdVcTJVBdgoKjTEm71RdD+H3338fe6zefvvtYh7O9bbbbhvnWzA3izlYu+22W9h6663D/PPPX6wgaZll2CNDdATnSLTEqlxeoZLEiaOiREb0Dlx00UVF5wVSRy6tfE1p0Clk2bdv3/DRRx/FY2Q288wzh1122SXqLPq6ww47hD333DMujDTbbLMV9fLzzz+PjjnBoZCeSmf9O5hKwn+cuYD0DH799ddRx3CcsaW77rpr2GOPPcJ2220XdXavvfYKG264YZhqqqkKV4fw7rvvxkYMgspUN7mPhvPlVV+HDx8e6y+NtkAm1F/UVdn6a5tttomNRvq/cy0Nc1999VU8Bp3LBoZ5BJ1S/YXe0ivIMGZGZbj+MsaY8VN1zWMEde+9916sHDHm9KbMM888YdNNNw3zzjtvmHzyyYs9hmuuuWZYeumlY4ULzHfhWpIqT8pyH45Jea0kVFHSm8UCBgSCJPYla5CshBwROyT1Q68JPSa0UCO/KaaYIiyyyCJxhUb0lJXx0EP0mFVH6SWkZ5uy9CjiYDPkVPJVq7Z+szzqq2le6MX69NNPYy8L+tW5c+fQvXv3uBIujRnYXXR04YUXjo0YrNgoW8q8t3feeSc2hEhnpaN51llkQYMm9Q9bZIDMWFmU1Zv532MbyKPHcI011gjLLLNMsf5idAzXYg9SW8B9ZH/Zz6NspVfUX/QKXnzxxTEYZN6lZA1sU51kn+T6yxiTd6oqINQ8FRYwEDgmSy65ZKxUNTwUqCjnmGOO6LAwpAloPWTRDpwdVQSqBFSx5hmCj/vuuy8uIsF8FXphGTaKXBi6pOFLwgHJhKERgjmALCIjGHq3+OKLR/0U6CG6jFNIr8A000wT8xgqSu8gPYWldNaYSsN/nh5CbKX+29hQbCmvRBDoIY0Ziy22WDGYIQ87TTCIrU71FaSzaV5e4L+MTPgvC+SxxBJLxPorta/k81ofGo54TQJQf9GoxDxCyVVydP0VYo/0Aw88EOsvFjdiiC26DMhWgbVQ/WWMMaa2HilsqwJaq+ltYTgIlR+VIVsqTlqwsw7y1FNPHZ1uWrQpSwVApco9cNRVgeo+eQbZMayGYaK0qtITy/Au5Eov66qrrhrlLLlDuiU/7zIsBQ4cDRhqpUZWOCcMC2WYnWSoc9NNN118l+a0004bj0noPb0uLJAgGZOf1XdjKgG6yit9NGeYRCMGwWCnTp3iMUhnCVjo3SYgVE8LzjkNGQRBKgfSWelxnuB/zHBPgmXJhC2jBPi/Z//P2AfqL+ROWWSLTXb9NS7IDn1jmCjTQthHVjSsUX+tttpqJesv7ZOfdxkaY/JNVXmUOBcMX9R8AAw4FcEMM8wQewdl4JVPiyAVAo6KYNgNPTbcB7IOiiqIPKJKUbLDydtoo43iYifMb2FILudUBpCXW1rrhyAOfdVy58gOXcUB1IuppbP0EDLkGZ1VbwHnGAaFE6keG2Sva1TGmEqBjaTRTaMDSNJL6V6qswSJNByxD5xD39N7yF6wr+vzhuovjRaQbMdXf9GoiXwF9oT6i6CdsqlcIY9yTZHssJ/0ujK/lfe+MteVXmzOqQwgL83FNsaYPDPWKlYJOCpUqDjIgGHHCWG+RVohyriTR8VAUiVADyGt1zgqpSqB9Pq8gVOC40dL6uqrrx4r0hNOOCG+dJohY8ga+aWQR2BjSoOu4hzTog/oIY6eeq0h1Td0lN+A34KyJJxAgkHdA8gXedZZU3nQNXQWvQN0jd4qeq/r01ka3bAFcrjpDaN3HJsNWf3Mo74iT+SKTeD7IyfkxWgBtkC+ZMN51V9AGddf9ZOtvw4++OBw4oknhi222KI47zVbf1F3ydYaY0yeqaqAEIeYihDDDhhxKj9t5Yykxwx1InFMSyC9WXJSQEOcdB+lPML3ZuGIk046KS4pT6sqvYI4JMiHuUGSD8egreRo6oLzhyMoh09IhtJZ4BgHhV4BHBuONUxMzrnyJG/9HrqHMU2FgAOdy+omcJzNx6Gmx5utdJPeMJLKKEFe9ZX6i2G41F+SATLRVnJNj6m7tIKrerLShiHZAd0n/W3yBt+bRXiOP/74cNVVV4V99923uECXdFLyFZKftsYYk1eqKiAEDLda+VRBynlRpQjs6zitAAhqWDCBllqu45yuTa/PG8iCITZHHnlk6NmzZ5y3gixSuagHQJWnzoOcHDMuyJYEqQOS1Vmdyzp1OJEsREGPC2X0W6S/gzGVBBsrPZWeSddSnZNec6w8tsxBZr6cerLIQ6/T8nkEWaT1FyDfrC1gX8eprAhqWHGY+ov7SK4qn1eQJXOvDz/88PCPf/wj9roiG8kFGaX1F0nnwfWXMSbvVFVAqMovJc2TQcfIlyoL6TmSrilVNk9QIYIqz1IyAjkxlJMs2ZrSZOUnpG86h4NSn1NSn87qNzOmkpTSWemf9gGd1XBx8mQTpK/ZBOhsXu2F/r9ZJBtt0/97llS26e9UqmyeaEr9ZYwxprYeKWyrAgy4WvZk8NN8tqDzMvpZ0vvoGHRsTKVAz0A6KQdFOijdS3U5TYJ966xpCVKdTR1q8kvpbJonOM7qaN51VvLj+5eSbSofkmSofKE8XavzOjbGGGPKpeoCwmyiElTFmlaQOkfLIec5hrSchu6ovDGVBr3C2dN+Vg+li2k+vS5ytiEtl23hNqbSSLdSHUP/snZWek0+Oqv8bJlS+p9XUrlKFpKXZKZzHFN/pb2q5Kk+ky0AnTfGGGMaQ1UFhFSE6dAQpbQyhXQ/dUiAFR67desWF0HQveR8U84Vq6kkaYOEEpTSWZ3D0ZPOks+iEqycx2Iz0lXdM9VtYyoBOit9HJ/OSgch1VmYfvrp4zwuFkXRNbpnXnUWeTWm/koDPxb4ytZfKk9Z/R7GGGNMOVRVQMhqYQR0Qg5GdjU74Bw9gCx/nl2uHyeFypkKNK1EOafK1ZhKgL5q2XiBzpXqnUb30GWtTAqco/eFd5FJZ3WN9dU0B3qFRMr4dJaFuljwKO29Rue5D+dtY8fC/zhbfwH/eck0lRPyLFV/0UDE74NcLVtjjDGVoKoCQpwMeknSShVYJp2KsVRlyCsmSDpHpcz7tBQUkp9WqGmlbExT4fUROHAKCtExdJWVQ9GzrM6ShxOYLpGOvtMjIAdb5XQ+dQqNaSp61YGGgZII+tDL+nSWRgwFhJynAYMX2aP/Kp/V2byh+guZpPDex1L1F/KiYSitvwgEsQX8Pq6/jDHGVIqqCgipSHlB+gwzzFDIGcvXX38dK045HMA+Ldo4Kix9DpyjUp511lnrVKgprkxNJcG55qXIOMcC53rYsGHFHpeszqYv9Aaca+6hXkJjmhN0FRtJA4RsKsHg999/Xyfo4xyJxgsa5VJ95h7Yamx2KZ3No52lYaec+gtZU3+RgHOMkmEornoJVV7kUa7GGGOaTlV5lzgoXbp0qfOOIVpWv/jiixj0qadElSIV6ZAhQ6IjI6hQ55xzzuhcA2XTSjhbwRrTFHDcmP+HEyjdwvkbPHhwMeiTzpLoLeAcPYiCoBK9x7mmDEj/Sexbb02loAcKG0lvlvQKfaQRQ4GL9JAt9hUbzNBGlWcUBo0YNMCpbKqzeWzYoP6i7uK/nMriyy+/HG/9xTsdBb22zCF0/WWMMaaSVF0PIZXpHHPMUaz4aEUdMGBAdEjUQg1UjkOHDg0ffvhhMSDUcJuFF144VqwirUTZd6U6Vn4ppeSiPDkyZlwI5nCucY4lP3pb0EsCP+SWyu6zzz6LL56mlxBowJhpppnC3HPPXWdeV/pbZH8XY5oCvXvzzDNPtJWAfvIidPTym2++iXmCc9hf9FYNHOgsjSDY6jTwy7vO0kOITLAH+v7YzoEDB4ZBgwYV58IDcqX+4lxaf3Xu3Hm89Rfk2R7ou6c2dXygn/gQDS1vjDHtlaoKCKkQGcq0yCKLFOdTYcypNB999NE49EYT9L/99tvw0ksvhTfffLM4KZ9rFlpooXg9FTHXuyIYi+SQyoRtNgFllABZmtLgHBPM4WDTW4LMCAjffffd8MQTT0RHW7IlQHz66adjsMiwUsApR1+5njLZ30e/gTGVAj1F5whe0F90DD19/fXXo02lsQLdw/YSyDz00ENRdzmGWWaZJSy66KKxNyzVVW3zqrOqv5CN6i9sJ//3xx57LHz11VfF+otewVdeeSX069cv2gugQZT6a7HFFqtTf0m2kFfZpjLQvmSTngNkRFJjRfa8Mcbkkaobt0NvyfLLLx/mn3/+YoVKwHfbbbeFm2++OVasONXsX3/99eG9996LBp+y9NKsttpq0VGhhTVbYeS1MoVS3z2bJzmmCScwba02dUFmDPFadtllY882IDOG391www3h1ltvDU899VTU2WuuuSbqLb3dXIfDMtdcc0V9R+9xKK2vprlBvwg8lllmmah3wOiLjz76KNx4443hzjvvjPqK3l566aXh9ttvj0OduQ4dJWBZcskl47BR6azIu84ydJz/8wILLBBlofrrjjvuCLfcckts2ES27FN/vfPOO1F+lGX+4RprrBED9bT+EnmWbanvnuYhJwXRaUKvXX8ZY0wVBoTMnVhiiSXCBhtsUGdhGJyVY489Nmy22WZhnXXWCb169Yqt2cx54TxD92j1XmutteI+4JjjsHBeZCvZPKLKMgWZKJ9eAypXEvKDbHnzNwzzWnHFFcMqq6xSXBgGvXzjjTfCfvvtF9Zff/2osyeeeGLo379/dFKQJ72DOOU4kPQoyKmRzIV11lQago8ePXpEW8tQR/SRnkEa3PbYY4+or+jt2WefHYc2ytnmupVXXjn2gnEd+eimemME+XmE/zEB80YbbVSn/mI4bu/evcPmm28eZXvIIYeE559/vlh/YTcI0vlN0vpL1wvbgtL1Fyhf9Zfqf50zxpg8U3UBIRUg81O22267sMkmm8QKljwZd1WQcjjYZ6jNUkstFXbddddYGVNhZh2StCJ15TAukglyYzijKlLkzrm8OyH1gWzQSfRu++23D6uvvnrRwUZ2tE5zHpAt+SScvjXXXDNss802Yd55562jnyI95hpjKgG6xP+bBgzs7NJLLx2HkQI6h87q/5/qLIvQ/OMf/4h2OR0uKt1MdTiv+sp/nR4+5ErjZbb+IiGbtP7CXiy++OJht912q1N/pTK0bCeM5Kr6K5WzZGeMMXml6gJCwCGht++UU04J++yzTzTuBH1UqmmlSMJJoVX1qKOOihUw15JPJayhIlQKrkz/diqUUnSsAEZlJK88y21CICecOoZ7nXDCCTHIQ47k0RuYyho5MtRu6623DocddlgMIOW8IHf2wTprmhN0i2Blq622iiMvsKH0rJBSnZVeMrQUW3zwwQfHoCXVWRJwjXV2rA1dcMEFw6mnnhr233//GGxTf/GfVoCCfEj0IjKq5eijjw5bbLFFcU6nbAH7tgVjkX6lepZCXrb+EnmWmzHGQFUFhNkKkzlZxx9/fHjuuefC3nvvXRxah8FnjgY9gpdffnmc54JDowCwFFzjSqE0cj4AZ1C/A3kKwrOBjRmLnDUS8qKn+qyzzgr33Xdf2GmnnWLLP+gcQ0hvuummcPrpp4fu3btH2deHfhNjKgn/aUBnCVYYwogNZY7rlltuGeabb754jgYNhocefvjhUZ+PPPLI2JttnS0NtkCypa6hp/C4444LzzzzTPzfU39pSDlz5P/5z3+Gyy67LNZh6623nuuvRoJsJJ9s/cUWXH8ZY/JOVQWEGHQljDlGHqcER5pW7LvvvjvOwWI+BnNdTjvttLDxxhvHVe9oWdU9VCGItDKV855XJF+h4xVWWCEucsDy8p988kn4/PPP4+qu9HrhqPB7pNeZsUh+6JjkxLL+9PwR9D3yyCPh008/jTp77733xnlEnGPxCcpLpuhrqpfcT+RdZ01lkT1EV6WzLMi16aabhvPPPz8GMNgBXjfBIkj0ZGOD0Wtdiz6OT2dT+5sXZAckW/YJuFmAhx7Au+66q1h/Pf744+GMM86IMmdlUtdfDQM5SBagYxb1okGDekv1F1v1fLv+MsbknaoLCKns0lZWKkOCQhbuoOJkfiGrOupl4OoxVCXJlmOSjoX281oxZL93Kg+GNDEsjF5ZVr5ky/u0cGioTLPOnxlLKZ1FXsiTRWOYa4Us0dmuXbvG4aKc03WSadbpE9rXOWOaCrqEviro4JjAkN4r9JOeLdkB9rG96RzDCeks95X9zRPIAjmUqr8Ipqm/sAGuvxpH9nun8lD9hVxdfxljzLhUXa2sylDGv9S2vqTzKelxWi7vpLLQPkmy1zkdp7+JqYvkIyQ/ySs9Hl+eSI9LnTemqWT/z9Iz5aXb7H6aJ9Lj7Lk8gVxT2Zba1pd0PiU9TsvlnVQW2idJ9jqn46y+G2NM3qjKZtpShlt5NurNS1bOlvuEQTal5GPZmbZKc+ps3vW9ueRqJkxWzpa7McaMJX/jdowxxhhjjDHGRBwQGmOMMcYYY0xOcUBojDHGGGOMMTnFAaExxhhjjDHG5BQHhMYYY4wxxhiTUxwQGmOMMcYYY0xOcUBojDHGGGOMMTnFAaExxhhjjDHG5BQHhMYYY4wxxhiTUxwQGmOMMcYYY0xOcUBojDHGGGOMMTnFAaExxhhjjDHG5BQHhMYYY4wxxhiTUxwQGmOMMcYYY0xOcUBojDHGGGOMMTnFAaExxhhjjDHG5BQHhMYYY4wxxhiTUxwQGmOMMcYYY0xOcUBojDHGGGOMMTnFAaExxhhjjDHG5BQHhMYYY4wxxhiTUxwQGmOMMcYYY0xOcUBojDHGGGOMMTnFAaExxhhjjDHG5JSJamop7NfLiSeeGM4666yw8847h4UXXjh06NAh5k888dh4sgG3MCXo169feOyxx8Iss8wStthiizDttNNGWU400UTxfLpvGs7w4cPD/fffH958881w2GGHhS5duhTO1Cq85dkkvv/++3DDDTeE+eefPxx++OFhlVVWifmyAZZv40BXzzjjjPDyyy+HvffeO0w//fThzz//jDaW9NdffxVKmnJAL++9997w7LPPhh133DEsvvjiYbLJJrNtrQBvvfVWrL/Q1S233DJMN910lmsFGDNmTPjkk0/COeecU7SrxhjT3DQoIDzppJNiQDjNNNOESSedNBp8LksvdSVQPr///nv48ccfw+STTx5mmGGGYmUquerYlAcV6k8//RR+/fXXMNdcc0VnOpWj5GvZlg8yGzp0aFhnnXViQLjSSitF+SJTAheCmI4dOxZKm4aCc01AeM899xQbMJB1NhC0zpYPNhZ7MNtss8X6K8W2oPFQfyFXZDrjjDMW6yvJVMemfKjDBg0aVJSlMcY0Nw0KCI8//vjw4YcfRiNFcXoI5ajgBJLnFuzywbGmx4VKk9ZVHEH2U9laruUzYsSI8Nlnn0W9JDiZd955o9MiWcpJaYDqmwzIjqCva9euYdtttw0rr7xylCP50l301pQHowVuvPHG8OWXXxbliZ3F5iJPydY6Wz4DBw6MckSec8wxR5hqqqlivuSsfVMew4YNC999912UIaNbqL/SOsv1V9NAX2+55ZbCkTHGNC8NCgj79u1bp+JkPz1WnikP9WLBlFNOGTp37hxlKYfacm0co0aNio4KzgiVKkNyIdVb03j0n8e5pteFfbB8G8+3334bGzEkP3SXxgy25GlryoeGNwXWjMRQL6Hl2TTS+qtTp07FKQ+uv5qO5LjssssWcowxpnlpUEAIamEtRVoJmIaTFb2cvrQSdYXaOJAtsmObytmybRqa1ybZCu3bDjQe/v/IETubBoBsS9kG0zBK6SmksrRcy0eyRHTsuv6qDMgVWdbnbxljTHNQtvcmA19fxWrKR/Jji0Mt2aYyNuWRyo59BTGm6SDPNIFl23RSGSqwlow5Zxk3DumosCwrzVhZIlPXX8YYU500OCBk+JKcE0grVRv+xpGVn46pVNVbYBqHZJjqKVtkSr5pHLRap3orHWWrfNM4kJ/0VmQDQ1M+aZCS2gKwnW08qR0AHbv+ahqyA8YY05KUZXUYLoaRx2DJ+Nt4NQ3kqSRHkC3JQ0YaT1au6X6qv6Z8JDv0kyTZWqZNBzmmdhbYYmMt36YjGwvad/3VePTfJ0me2nf91ThSWRpjTEvR4DmEFLNDUlkkeslVx2xxUizz+snKLqWUXNmnkmVrmTaNVL7Zfcu2aWRlqGPLtvGkskvlCZbt30xIDg09j511/WWMMdVFgwNCU3myoqfyVJ7281qh8t1JciyE5EEvCvtq3ZesVDavcjPG1KWU/WjPdiL9bum+GsREuk85nU97TNNGtHRBKWOMMe0LB4RtgPQnoAJmqA1bUh5f8p06McAxzoiGIJVySCiDvNj6xejGmCwKblL7orw0CGoPyB6O77tRhkQZUn2MHj06TDLJJMVGuLTs+K4zxhhTPTggbEVKiZ689uaclIsCO+Sg+VQ4JDpHPk4KASL7vBIF0oWP8i5DY8xYZDMUIIn2HMzIhmqObxrMKQnKSkYkyuuYchyrfJ5kaIwxecIBYSsj8ZeqeCFvgQ0y0HdXj6DkwgvnCQyzTkhWhlyva40xRjZEW+XpOGtTqh2+F6TfNfsdlZctK3ReL/XnmK3eSZy3uskYY9ozDgjbAPwEaRDEMZWuesXyCPKQA4JTwrG2QL7ySFJjOynGmFJkbQq9ZtDeGo9kC1O7yD6k31nn0jKyrzqve6Rb3UNyNMYYU/04IGxlEL8q2q+++irceOON4YEHHghTTTVV2H///cN6660XJp100kLpfCHVlDPy66+/hmuvvTY88sgjYaeddgrrr79+mGaaaeJ5lSHZUTHGpKjxCJ599tlw0003hQEDBoTu3buHf/7zn2HppZeO59oTsoeyj+rpk61k2P0XX3wRXnrppfDmm2+Gzz//PHz33XdhsskmC3PPPXdYbLHFwqqrrhoWWmihMOWUUxavE5KnMcaY6sfdKW0AVdgjR44Mn3zySaygX3755fDjjz/WqYDzAN9XLfk6Blql33jjjRgwP/nkk2Ho0KExLw3+2DoYNMZkSW3E8OHDw7vvvhteeOGF0L9///Dbb7/Fc+0Rvi8JOyrbiN0cPHhwuPjii8MhhxwSTjvttBggP/roo7HeQS533nlnuOCCC+L5k08+OXzwwQfh999/L9pjydMYY0z7wAFhG4JKVitkpi3aeSP93uzTso1Dctlll0UH7o8//oj5ck6AfVJeZWaMmTDYCIZDyn60V5vB99KWRH1CQMg+PYEXXnhhuPzyy2PjGseMSFlllVXClltuGXr06BFmm222GDTSOHndddeFU045JQbR2F7d1xhjTPvBAWEroko1G9wATguBkPLTXjPBsZKOgbJZ0rJKWdK88ZVL0WfVd202P91mUb4cNI5pzf7ss8/ClVdeGZ544ok4bDR7vYNAY0x9pPYwtRVpjxlgV8ZnO9P9NC8lza+vTEq5ZdKy7GfrBZXle2UT+T///HO44447Yvrwww9Dly5dws477xyOOeaYcNRRR4VevXqFI444Ih4fcMABYZFFFgnDhg0L9913X7jhhhvCoEGD4lBTY4wx7YsOx9dS2DetBJW1YCEZ5m+svvrqscWWltp0gn99yCnAQZADIHQuRfeTA8S+8tLyOs7eIy3LFrLXijQ/LQvkl7oGaI3GacERue2228I333xTLMv8wSWXXDLObYHsfY0xRmAXZBuweZ07d472AzvLdtppp43ngHKl7FL2OL0npOd1j/S8UH62fKlgNEX3KnVtqbzslvszV/Ccc84JH3/8cZh11lnDNttsE3bbbbew1lprhfnmmy907do1zDXXXGHhhReOwSD2lbLffvttnOPerVu3WD9pTqExxpj2gReVaUUkelXmJA3rSfd1HrQlTxUyFT356lVMh0Sl12bvk5YhcR8+U45Jmq9yoDJsgXOl7se+0L7OifSzBGXpCcR5IRC85557okNCy7Q+G6eGhWVmnHHGwlV/fydjjBHYC9kd7UPWVmlLEqmNy17LufRazpOn69P7QHqtyrPVZ9BTqTLaQnpdei12XvnKA/ZJ2c9nruS5554bzjzzzDBixIiw3XbbxYXLCIi1orWuBe5H7+D//ve/cOmll8brWYCHHkQWmknLGmOMqW48ZLQVUQWvRAWsSl2owlUZSPMEeRzLISFxL7bZ8tmtrlU5oechX05LWpZtNkGpPEj3QcfcS59NryBzWu6///5w/vnnx1VFcUSWWmqpMO+88xafwxhjGoJsquxR1i6C9lWGY2yNyoLslJLupfurvM6l6Brta0s5AkG2CvDSsqDPYavE+VJ5gmNtSXwGi+m89tpr8X2u0003XVhjjTWiTWUVa67l+dmm95t++unDBhtsEMszv515hdyHhkdjjDHtBw8ZbUWocJWAVUYZnvPee++FL7/8Mkw++eShU6dOxUqa7ffffx8GDhwYVyMleGIxACpyVoCjsv7oo4/iOZYTpyy9alTkCqR0Lz7r66+/juX5TD5P5aeYYop4jRwdPZ+2wDnuiXPBdVzP53766afxOX755Zd4niXMKUtLc79+/eJzwdRTTx232XtyD1a869OnT3j11VfDTDPNFIczHXzwwfE8i8rwmTgpSyyxRJRPSno/Y4zBJqSJoecsUsVw9J9++inaO2wtdlHlsVMsooIt4xyJoOqHH36I8+iwmbJ1zMvjWmwdWwVW2CtWiqY8dpa50NhcygPDLimrUR0gOw16HrbYd2wojWV8NvfiGFtIQIe9ptePz+G7YZO5J/UDz4JdHzJkSHylEd+BoZ9bb711DAg1okToc4HvQGLxGe7Ja35WWmmleH1eX4dkjDHtEQeErUha8bKPE8KQngMPPDDcddddYYEFFojzOOQswOOPPx4n/LNCHI7EggsuGIOv5557Ls61I5A666yz4rLhLB9OoIajwhwZgiecGl7ZwOpxlGe1OcrfdtttMQDDYcGJIGDDCUo/m2ckyWnBmSJA47N4nvPOOy8OLXrwwQeLy7njbOFQPPTQQ9EBufXWW+P9V1hhhWLLtMDpeeyxx8LVV18dZYGzssUWW8SFDpjT8swzz8RhpA4IjTENJWtnCW6OPfbYcOqpp8agjuGPBDgC+8IrGRhOyTsLmVtHDxmNVdixq666Ko5eoAy2jtfhEPjNMMMMcW4iwy+xZQRuDz/8cFwQK7WNBJrYbMpjCxVIynZhLwE7y7MQyL3yyivxlTvYd+oInuH5558vNrBxHwLEk046KfznP/8Jb7/9dpwPyHfjPtwfe83Qe+YIcm7llVeO8wgFny/7ntpR6gTqIwJp5LD22mvHeYQaZmqMMab6cUDYiqSVLpUwLbcvvvhi6NfvjRiMbbzxxmHRRRctvoqC8rQAE8xRliCJIT30qLEsOMOBmHtHkESLMBU5eW+99VZ0OlhRjrwrrrgivnuKz8JxoWKnPIsG4HgQGHLfOeaYo07AxTOSCCppLWZuH++puvfee6OzRIBKAMi9cIZwvN55550YXBIc8p4rgkAWyyGpZZr7AY4QL4umB5TvTSC45557RieLMgS9DgiNMeWATVDAhf3CxmD76N2j0Ymhk3POOWfRdlAWG0iDGraLwInAkXnLvIKBnkVsHXaTwI5zBGc0gnE/giZsNO/vozw2m/Lcn/LYNz6f8osvvniYeeaZiyMy9IxsGQHCaJFLLrkkBq8EpwRl2FB6FwnwGHVBrx/2FVtIIMj3w9ZjY3m5vII8RlsQzG222WZhk002CbPMMkvMxw7rM1MZ8DwkPoOgllElNEBuuOGGsW7I9iwaY4ypXhwQtiJUuoKKlyAPR+S1116Pzsbmm28egz6cBZXFGeHlwbQGk4/DQO8e5el122qrreJ7pKj8GZpEwEePIPfGKcFxoWeQz1t11VXjKnOstIeDgYNEsEUrMg4GlT+OEp9Dxc8zkGgN5x6HH354LMt5VkPFUSBQW3755aMjxVwTAsO+ffvGlmzuT1k+F2eFfcAZIfF83JtgkF5SFjvg83CAOMdrJwhuHRAaYxoKtg77gi1hX41qGoXAkHQCHJ2n8Qk7TBmCHvJ4TQONW9g57Oumm24alllmmdgARuMYdpZhnARN3IceROwegRl2kfKM9uDeBHWUwy5j1whIabBTUMb1JGwdvYHYWu6PjcYmy8YTTDJMlM9//fXXYyDIM2D3+T7YWUaZcC/uncoilQnoMwXngQCWedzIg4Y+Asr11lsvBpO2tcYY046orQRMG2HgwIE1u+++e01tRV0z1VRT1Vx//fU1tRV+4WxNTW0gVHPPPffU1Fb0sUyts1IzzTTT1NQ6BzWPPPJITa3TEMuQuO6uu+6qqXVaamoDr1i2NrCqmX766Wv+8Y9/1Dz33HM1tU5JzR9//BET1z700EM1yy23XE2tkxPL/fe//60ZMmRITa1zEBP8+uuvNQ8//HBNbaBaU+sQxPvutddeNbXOSPxM3a82sIvlNtlkk1iO50XduPfxxx9fUxtwxvuB7k+qdZBqah2P4uex5ZjP3XfffWtqA814n3POOaemNhiNZYSuMcaY+qgN7mpWWGGFaJfWXXfdmueff76OvakNgmpOO+20aFuxW9jP2gCo5tBDD62pDQqjncPGYudqg8qaU089taY2WIt2ibKTTz55TW3gWHPSSSfVfPzxx0U7y/bTTz+tOf300+P5SSaZpGbuueeuefHFF+P9aoPF+Azw9ddf1xx77LGxHM9ZG9jV1AaZNbXBXtHGkmqDy2gLawPb+KyUJS2//PI1t99+e7SnfCdtU7CrfCb5aaIsUCc8+OCDNfPMM0/8XtjuPn36xM/M3ssYY0x14yUb2wi1v0VssVWLtKit3At7IZ4DypHPllZiXiC82mqrxdZqegrpeWNLay4t08wX4Z4keu/22WefuKVVmt43ynMtiwXQ88YQTXrqGApFLx+fRaJ1m2Gld999d2xl5/NZ7IVlyJlTwv34XA1pooX6sMMOC7UBaJ3vxHXAdxb6DL4jz8O+8inP9eQbY0xjkL3BxmBTsvZHW85zDlvGFnvG/Gdec0MPHcP5ZWcZ7tmzZ89QG1jGe9LjxzW824/XOjBfL7WL2OI111wzjpCgx42RHgwh5TrZRfIZBcKcaXoTsfGMxuCVD4yI4D66H7Z6l112Kc6z5rP1vbif7qm6I4XvqpTCMc+A/WeoKIvi8HwbbbRRtOnpOxuNMca0DxwQtjGylTOkFTz7VM4ESAwLJbDT0CUCNvK5B2VZaACHhC3MPvvscT4MQzJxJtL7AsM8Cey4F/dhjgpDR4GyDHNiSBLzDPkMXgWBM8TCBDgowHU8H+cJCvks5kIyNKuUU1IOpWRjjDHlUJ8dSe0hNoygCOaff/4YwGFLCQJlZymHHWW+NfZNtpeh7gRODC+VzSafhJ3EbjOkk2M+h6CQLXAPGuOYK01Axr35bBr8sM/cjzKyszwPAdo666wTy3Fv2XMY33elHOf1vfWMfG8WvuF9hSxixvclKN15552jDPSdjDHGtB8cEFYBVL5ppQ0cs3gBq8ilK8UJylFx04JNqzLlKUd5vcxd99SWgE3vm+L6UaNGRedA55lP8v7778feQRybZZddNs6LYR8HhXJZZ4QWbOb64VBQxhhj2hrYLiXZTtk9GskI+AjIhOwwW/X8sc812FjK07CmewjK0GNIEKfPYn4g6JhRGMwNp3cQm7300kvXmeNIGT0f+yTOd+/ePZbPfmYpdB3BHgm4N8/CXEkWsmGxmj/++CPWF3vssUccQUIjH5+d2nljjDHVj616FUDFDXIAqIzZEujRgqyeN+WDnAcNbyIfB4XeQgV8JDkP2nIv3UNlBCuYshADCxlwTwI97qfPVeIe5HFPtiyvjpOkzzDGmLZE1taxj+0C7JcCIeWrLDaNfc4rj0Yw7C7HaTnZP/Jks9MygtdMEAzSGEePn4bjU07PlN6D+2LTeT0GDYANsbNpA57uwwgQFqchGLzvvvviCBFGlbCSNK//4Xvp840xxrQvbN3bOFTaqcPAsSp8nA5eFJye137qPKg8xyQdU0ZJefXBeVav47UVlCcgpOWYfI6FegHTPAJRr0pnjGnLpPZJ9pCtArz64DrK6RqCM8E5JUjtpa4THNNbx+qjjMbAVhNo0uim61SecpxXHlsC17QXc3xQngRcj23ntT6XXXZZ7Blk2CrzJffee+84VJQeUH0vruPzZeuNMcZUPw4IqwRV4KrEgaFK9BIqL1tBk09lr5S9B3naqqycDOWrDPdmCClDiIAyOB8qy1b7KeQRPGrYqjHGtDVkm1IbpjyCMo2ySG0iyO6px03oPmmeIA87K9J7EmjRU6c5hdh49TaCPk/HwD7302iQhsA1emZeHcQL9+kZfOSRR2IwyvxwFh/bfvvtYy8h99czOxA0xpj2hwPCKkMBmxyI7P74UDlI9yG9D1uO9Vk6R9LwIpwClUnRNaAtkJ8ta4wxbZG0l0/IPqZ2TZCnfNlPIdsptM82tbGQ2lVdl57XVrZU57XV/RoCn8UUgLvuuitceuml8T2vBKQsPKZVUnmPolAASeJz9AzGGGOqH1v0No4q+zSl+VTgQhW0Km5BWTkJ6T0g3Qcds9V17HNvWp8JCDnmM3glhRwYXZNNQGu3Fk4wxpi2huycbJb2ycfGkSC1ibKzugZSW1gfuh7YpoEV9jXtjaS3UCs9K4+k5wHlUVYro04IricYvO2222IwyGsu6GHkJfl77bVX2HLLLeP89FJBH3n6nsYYY9oHDgjbOFT0VL5yBrLOSRY5B6WcB91HCTin/bSi17UkwFFhiChOAnAdy6WzpYzumV4jWISGeTHje+4JMaFrsp9pjDFZ6rMTsmGAncraqnSb2rj0Gt1DeZCW17m0jO6jLUNEmQuoqQA0pLG4S/Ye+ryU77//vlhWlNpny7sFr7/++nD11VeHDz74IM5F59UVDBPdZJNNinaeskpqDDTGGNP+cEDYhlBlmzoMoiHn2JKyrbqUV5ks2XPsk8c9dD99HgEh76GiJZmWaF4/wcqjKgcKKnVMDyYLFNAaLXQ+3WbR9dpCul/qGqCMnDljjEnBPsiOpDYka084Jqlsuh3f9diehtxL5UjYyPQahmmyuijDVhmFwWso6P1L78E57QP2ePDgwdHWivQ8KIj87rvvwk033RSuuOKK8PHHH8dXYPCu2AMOOCD06NEj2neV1XPpXukzGGOMaT84IGxFqFiVhJwDzdVLzxNsqaJmX8EXKc0XygNV5ErKE6kDoPtCWp5WZN4nyDLoDAPlBfVffvllfGauTz+Pe7BPwIjTwYuWReoApc9QCs6TWNBGz8KxPovEvsgeG2PyTWoPsEuyHezLXnIsyNPQS+ww9kb2jGt1zJY87Jnul9qmUuhZKKvyoHyuo9Ft0UUXjT2FvIKCl8TT+6fPZ5t+Hp/PeWwswaPQvfV8fBeGn95///3hmmuuiffGpjNXsFevXvE9g6p3uDfXCI5B3zk9Z4wxpvpxQNiKqMIG7bOl0ifgYquKOT0PVPIqQx4VuSptzgHHvL8qvQeJfTkgHKt8em85EVyrfF4fwQuXcRw4xwuMb7zxxvjOLKH7ch6nasCAAeGee+6JvYn6fJ6b81nIU9JnCoZSkchPr+VY34/78tylFoQwxuQT7IPsJGib2jlIy6Q2hXz2yVOASB7Xso+9SXvVZDN1zD5b3V/H+nx9HnCOHrtlllkm2lp6CJ999tm44AtD7/Vc3AvYp/fw8ccfD88880zs/eMeOgc8Mw1q2OPXXnstnHXWWXHIKM/9j3/8I+y6665h4YUXrnNv7sF1HHMdeUp6Vt3fGGNM9eOAsBWhcpVDoqTAjoUFOOY85dhnS0XNecqpwial91NAhDPDayJ0jcpxHXmc1zHnuV7BGseUSe9PHkuQ40TQS0h55qGce+65cUhoeh3P0a9fv3DBBReEO++8s/g9S5HN53ogn+twSJRUVmUkGz4XmTV02XVjTD6YkA0lT+dVXjZS9kTndQ+gDMfYJexsWpZrdW/up88EjklAGdBnA/dhpc/VV189vuuVxjQWfrn55pvj53Af3YtA74477gjnnHNOeO+994rPBnoOfQ/eNXjxxRfHYBA7v/7668fVRBn1wf14Jp5Dz61gmIa49DvoWTk2xhjTPnBA2IpQuRK8qWKVE0IljJPBOfIU4KWOgCpvnWOf6+RgsM85EvtAGSp5Ve5ZZ4R74zjoMyijpDK8k2v55ZePiw/QKk6LdJ8+fcJGG20Udt999/Df//43nHjiiWGnnXYKu+yyS7j33nvj5zD/kPtyH3otuWeW9LPkjOiZ6J3U9wDKkNLykklazhiTb8ZnQ2UnKUPCfrBVGeywrsHWUJ4yHLMlYZ+4hrJsuS/2KHsv4B7kcY1I7Z6OmUe4xRZbxDl93O+NN94Ihx9+eFh77bXj8M7zzz8/HHXUUWHDDTcMRxxxRAwasZHYZN2Pz+GePAtD9+lp5H2DCip55yDXzzrrrGHmmWeO21lmmSUGoWxnm2224jH7zGtcYYUVwt133x2DSz2vMcaY6ufvmsq0OFSoqlTZUvHLqRBpcMM+5ykrJ0PXywEAKnzyyZPTo2twftiSp3vrHmxVFriWpGPgM1iBbttttw2nn3567CnkmT799NP4Pit6C+kVfOCBB+JQUlq5CRBxPLg3z8S8FbbpfYU+n8/R99Gz8txcB3LiQN9d5yUbY4zBdgj2UxsqOyRbxJYyCppkb4TsEnaRQEton+uxTQpAZT9LfYbgWo71LMBn0HPHQi/04jGMlAVjmCd45ZVXxoY3XiTP6yJgv/32CwcffHBYaKGF4jHB4VRTTRX3uRff+aWXXoqfJbuuQPGHH36IQ1NJzEXUPo19HJNUhmfgWUvJxhhjTPViz7kVUYWKE6AKlkSFi0NBJa5joAyJ8rqWih3kUOhaynEuvW/WEdF9KAPsp46NnB/QPYA8Wo532GGHuFIdLdXMK6R1GseB+6222mrhmGOOCSeccEIMCnFOdI/pppuu+D1IoP3s8wL7LL+ePgtDpfh+KqvykocxxgA2ZXw2VOfY6ryuweZgU2SflLiWc2w5n9omlQdtuZ8+jzzsrJ6D3kKdY6t97OmSSy4ZDj300NjItscee8R5hQSrNLZhR2mYoxGOdwcuuOCC8RruyfMwEkNQl/BKCr4T5/kMbUlpvpAcUjjP91N5Y4wx7YOJao26rXorkoqf1trPPvsszsejIqaFuGvXrvGcKnDe/UdvHK21rEKHE0CPHee4hso6rcRp5R04cGAM1Cg/33zzxeFBlNdnU559PoP3BbIQDM9C0IcDguMh5CSxBRwbnBOuo/WYQI05JzwTQ5D4TL7P//73v3D55ZfHIacsRLPBBhvE+/DZ+m4ghyR9PvK47yeffBLvxWeyCALDqnCAUrgm/f7GGIO9kn3EXsmGMhxygQUWqGNDCZ6YZ8fqyOxjM1n5Mx3qTlntU+brr78uzuGbZ555ot2UbVJZlWcRGOyYFtqiLCm1hSrLPvekQQzbz7P/8ssv0QYyDJ9hnNhBGtwYlXHGGWfEXkNeI3HSSSeFpZZaKt4D+0k9wKrQoM9JPyv9TG15JraSH/YbeVGHpMNejTHGVDcOCNsI+hlUKasCBs6pAofsPqRllAelrk3Jlk/RNQJHhmCRuSg4BossskhYdtllYwAodC+uJfE9WI2UIU7MPcGxuuGGG8LSSy9dXDWUMqBr03tA9vn0zPWdN8aYlFI2I2s/VCa1vVk7nJLanVL3F6XyUrLX0nj3/PPPx6CRRrUlllgiBqU0oGXvxfOxT68h7xZkbiGBLD2HjNxgSD/nSWos5B7Z76T7iVKfo2uMMca0P2zh2wiqtEVa+So/LZMtn+an1FdelMoTukYJp4B3V7Gq3YUXXhhXGKWVnXyBIyFngi2t2R9++GHo379/bGHHscHJSZ0bbbPoc7Mor77zxhiTUspmZO2H9lPbm7XDaUrRcX3nsnkp2WvpcWSF5muvvTauLsrrJOghTO1kanPZp/eQhje2jMqYc84541xtwbWk7LNkj0U238GgMca0b2zlTYPAmWBuIsNHGQr1wQcfhMceeyyuVEeLdqmgjpXoeO8VK9sxFJbrmGvIMC0FhCScDTkgpZwTY4zJAwR3nTp1inaWYfvYT2wsW3oBU/som8twVcqwaAwNdHPMMUd8sb0W7+KebLGzXGMba4wxJkuH42sp7BszXnAkSKw69+6778b5LDgjtF6zYAFzCL/99ts4T+X9998PTz31VHwHIS3ctHovt9xycfED5tgI3ZMkB4d9Y4zJG9hA5uYR/A0a9Hmc60ivH3b1t99+i3aWBjjyPv/889iTyNxBRm3QSMdcyE022SQm5hcqAFQStrHGGGNSPIfQlMWIESPi0CTePfjwww9H54ShoCx3zvxAegFxZr766qu4CAznO3fuHN9fteuuu4bNNtsslqfVWovTyFlxQGiMMSEGgAR6DMvnHYTYXXoNmbfNQmPYSgJEFophARwa3BgmSiDI6s/M0darL+gZTO0s+x4CaowxJsUBoSkL1IWAjx7Aa665Jrz66qvReaHlmvmCLFxACzfDnlgFj5VKl1lmmbDNNtuEVVZZJQaDUjk5KiBnxRhj8ozsIytEP/nkk+Gee+6JK5jSuMYwfAJBbCW2lMW9eEchQSLveqXBjXnaBIO6j4JA2VjbWWOMMVkcEJqyQWVY9pylzFkwhhXxXn/99bi6HcNHcVJY3Y4lz5kzyLu0yAO1TmedEgWGbrk2xuQdbCw2ETvLvEBGZbzwwgvh7bffjkPyOc/wUOYKdu/ePay66qqxh5DGOFXppYI/rTTqoNAYY0yKA0LTYFAVJTkVUh/201Zo5au88kFb5YMCwrScMcbkDeyibKkayGRPyeNcmq+UtZ3a1zkgIGTfDW/GGGNSXCuYBiGHBEeCRMs14Fwwf4XzcjJwOlKUT1lSei3OjZwUkjHG5BU1jGkVZtlS9mU3saep3VSeIC+9FtgncV/bWWOMMVka3EP4V6xgaiuhQoVljDHGGGOMMaa6aVBASDA4avTY1kljjDHGGGOMMe2DBg0ZpWfQGGOMMcYYY0z7omEBoYeJGmOMMcYYY0y7o0EBoTHGGGOMMcaY9ocDQmOMMcYYY4zJKQ4IjTHGGGOMMSanOCA0xhhjjDHGmJzigNAYY4wxxhhjcooDQmOMMcYYY4zJKQ4IjTHGGGOMMSanOCA0xhhjjDHGmJzigNAYY4wxxhhjcooDQmOMMcYYY4zJKQ4IjTHGGGOMMSanOCA0xhhjjDHGmJzigNAYY4wxxhhjcooDQmOMMcYYY4zJKQ4IjTHGGGOMMSanOCA0xhhjjDHGmJzigNAYY4wxxhhjcooDwjbG62++FZZcafVwZO8Tw8iRIwu5+eS8iy6NslDiOMuPP/4Udtpj7zrlkGF7oyGyaCh5kdk9DzxY5zs29T9Vyd+grdJQmbWWLPS5PGeeaeh/+NPPB4UNttimWIZ98tobldRH1ynl4zrlb/IiC9P+cEBYDz//8ku44trrw6FHHRv/4KZ12Gi9dcKrTz8W3n75uXDQvnsVcsflhKOPiGVIyy69VCG3/cB357shC2RSCdq7zHpusnHx++22846F3KbRUH2sVhoqs+bQR1M+Df0PX3nR+bHMI3ffFuaZq1sht/1g+1g+lln5NMQ+Tjtt53DDFZfEMnfffH2YbdZZC2eMadu0WkBIi0nagpImWldaOwj77vvh4Y577g/Dvvm2kNMyYEQxJP894bgw+eSTF3KbF/0WbUHuzYlaRJvSEioqJbNsa2JbasHP9i409bvqfpX4jtnW7bbSY9SWZZZt3a7E/6ClkROLY9bcZP+bpPba0l9J3ajkf6At28dK/58qWQ/Ta0XvFfdrK7YR2rJutFWZGdNSuIcwx8igvvjyqxXrQWmLqKJdeKEFwuKLLlLIbRyVlBmV13b/t2dYbpmli62OG67bI+z778Na3elBZltsv3PYe/dd4nPRijxH1y5h/15HlF2Bq6K9/Oprwz+336aQ2zh0r9f6vRmeffj++Gz0fvQ+5fRWr8TbqswAZ/WSK6+NLdY8G9uHH3+yKoPCloDfi9/t4P32jvIi0fux+74HtrugsJK6Ucn/QFu2j5WUWSXrFMAO9tz+n2GtNVZrU71TbVk32qrMjGlJWi0gVE9YOlxBw1robqfbXYaS9M5778fhm91XWzus33Or8NiTT4eampp4HYYGh//sCy8KL7z8Sthqp13j8Z4HHBz6DxgYywB/evJTo43xoGWJz+DzOEcZDNeQoUPDu+/3D2tsuGnMI2Wdzj///DNcetU1YeUeG4Qbb70jHjcGfQelUhULeaT0e+j5OU4dlTQ/TWpFw+E8/ZzzosPTHoe+Cb7rNTfcFIOH5ZdZppDbOCots/sfeiQsvcRiYa/ddinkhLhPHudaC77nnffcF50T9cTQW33Evw+K+8+88ELcNpRLr7o2rLBc99jr3anTFIXcxvHeBwPCm++8F0485shoIwBbgrNOj365jkWlaMsy4z+As3rycUcVhwuy5Zh8zrd1ZJeVUlsHCqCxjSrLvuxqtveA/fHZRw37Soe9rbnqqrFBCce9vVBJ3aj0f6Ct2sdKy6ySdQr6/uprb4R7br4uzDfPPIXc1qct60ZblZkxLU1V9BB+MPDD2uDu3+GJp58NY8aMCUOHfRPOOPeC8NEnnxZKjOXWO+8JBx1+VDG/7+v9wn9qnYTPBn0Rj5uDwUOGhgcffTz89vvvtZXBE+GXX34tnCmPUgFyKfq+0S8OZyV4pvL533kXhrNOPTFeI0eFComWsrQljvM4M7dcfXmsvDDGOJupw9Me4bteeNYZxeChKVRSZgQu9HLh9HNfQcDz0GNPxHOtFdx8PXRYDLpWWWmFQs5YqLRpIKHypIJvKDg6lRrih45T6XeZdZZCzlhZEgzybB9/9lkht2VpyzJ75733wowzTB/mm3vuQs7fDhqNXpxv6yAPbBk9MeNrwX/syWdCtzlnjw0Et999X2wMuueWG+L31/dsiH3MC5XUjUr+B9qyfaykzCpdD3Mf7pfKrC3QlnWjrcrMmJamKgJCgsBZZp4pXHf5xeGlJx8JG6zbI3z73Xeh/4ABhRJjwaBs3XOz8NyjD4TnH3swrLX6qmHQF1+Gl17pWygxYbKOB06ChqaRsk5a19lmDRuvv26YslOnsOG664Spp56qcKZ5+H74D2HtNVaP+1Q+6/VYM8w791zxeOiwYVEGqrBo0QYM3Za1cmkuh5nP1Nj7UolzDTX2eWH4jz/GwH72rl0LOWN7sM/tc0k485QT4jnKtAbDf/ghbqefbrq4BXpdqLSP+PeB4cvBX9f+nn8UzrQc6BA6PusssxQrb5x7hg79c4dt43/1q8GDY35L01ZlBoO++CoOzZp88sniMc7SHvsfHOVFIMT59gKLgcnuvdf/g7DrTjuE6TqPbQzS92ysfdR/loCzHJA3I1BK2UYSetJaVFI3KvkfaMv2MU//p0qRF90wppqpioCQYOs/hxwUllxs0bjfpZ4W4tVXWTnst9ceofM004Rppp46rLbySjH/k9pKfvTo0XG/0nTo0CHstduuMVDdcdut4nFzku0dSY2iqK9CIsBNDXKlwKGihU1Bcza59W38KKDmd2OYWnP8Ro1FzixOML9jU4cvVhKcgONO/m/s1WnqcOBK0pZlxvAoAmiG3P5js00Kue0H5hRpNEB99q4x9pH/KPM5YYnFFovbhqLhp6VsI6kSQwUrQSV1o5L/gbZsH9v7/6k5yItuGFNtVEVAOE1tgEevwISYaspOYZKOHQtHBGtjv96IESMaPbevGtl0ow1iK5nG5WM0Gc6SDSZN60PLKa3LDH9pK46h+PjTT6Ozw/yWSg1frBRqXb7iwnMrMhy4UrRlmd113wOxFT1vwyKzlGsfOX/Cf8+Iw9HSeWPtiUrqRiX/A23ZPvr/VD550Q1jqpGqCAgbAwvOfPvd93G/c+fOYZJJJon7WQgW//ijdYZyNRcYSoaTsvIiQ5JWWGu9mN/7yMObpadOrXTZoVBKHjI6LtNPO20ctnbY0b3HqRwZ9sg5yrQGamU9+4KLw0XnnFlnfgstselwqZYE3aVh6Krrb4zHac9zqWFELUlblRnQEk8ww5DINIBmiBZDtTifJ8q1jyzwg/yYl9iYuV7qEcnaRaXWHDJaSd2o5H+gLdtH/5/KJy+6YUw1064CwjFj/gx//vVX+Ks2vfbGm+HOex8IHTt2DMt3XzoO5ezYYWzv4de1zsDvtYHghx9/Eo49+b/RQagPnMxh335TOBqXSq0yWilG1ga3tHazmlc6LCl1nisN9+X+6eelqTk/u9KkwS3DgZoKzh73YnhjCk4Ew9uYc7LYwgsVcsd+Pj1f6dC3cqnvMxsKvST0lrCMd9ryjWNbajJ/S8kMWJSAoX308qSUWuihHFpaZtDUz0xB7tyrVOMLQxyRGfPk0mdgvhz2rdwhkOVQad1oKjxPOfaR34gGCILBxvZo8D9uq0NGy9UN5uyyEisBLrqdUkm70Vz2sRL6WK7MKv0fqKTdaCgtbR8rrRvcg3txT8oZY8al1QJC/UFpnaW1DXjHE3mlKpuG8NhTT8fAbOlV1oyvnKAVmIVeVlx+uXh+gfnnCzPNOGN45PEnw0prrx+23vn/wuCvh8SgMcsM008X5pi9S7zHNv/cPT4XKWsQK7XKaKWYfLLJYi+KFpgx5aFWXsBxbIoMuZbfAUq9EoGghpXXHnniyULO2N4IPn+XHbYr5JTHhD6zIVAx4+zgCKsy5r4sj05L7gbr9Ih5oiVlhgOAY8F8Ln0Oz0hvD63FjXUSW15mTf/MFC2mgy1ltb0UHDAcMYa36XNw7I858dS40mbqoFWaSupGJeB3aqh9rEQw2NYpVzfUu0rvmIbcikrbjeaxj03Xx3Jl1pL2sTmoxGe2tm6Mzz4aY8bSrnoIWXCGBAvMN2849ohetenQ0GmKsZOW5593nnD4wQfUOgQzxyBw7dVXC1dddH7osebYVTtTWJjmqF6HhHXWWiNMNumkhdxxqdQqo2qBU4CM4VQQKgPaUDCIGEbupXuUupc+k8TnUcnrnYucaw9QeWm4Ft+N7zg+2RJQbNVz08LRuJQjM1WC9YHjwPAZXnCse9JaeuH/Tm9UYAMT+syGwpAeXm2iRprxDaubkMxoRNH3I3DDoeQ9nxxnW2wn9Pyc5xlA+s0z8qyNGc4HrSGzCX1mOTIDvSOvPuiFouVcuqoXRDd3oDMh3WgI6X9Y74dtSuNhQ+wjDj6v9QENLS1Vrj1Qjm7QIEPPTH1U0m40h32shD5COTKb0GdWsk5RD66eif+K9Df7Ls6G0hr2sdK6MT772BwyM6YamahGb3cfDyNHNc8KnZWCyhkjQ0VVyrjkCZyj/XsdEVvdsrKgcsHJwZBmWzHbIjwvLZPj+031fak8KuXcUgHwnjJagZs6nGt8v0djIBBggQt6Oep7tgl9Zt5kBhPSpYZ8ZkP0sRwq/T0r/f9uyPdtiD5WUjeayvhkXmn5NScN/Q9L9iyG09gGkyw0VuAwN6URRlRaNyqhjw2VbTm0ZfuYhzoFWsM+Nsf/z5jmot0uKpNXtLhGqTlLnuw+YagcGY7IfLTGDktKufamW+Lvsef/7dLkiruhtPRnWmaNo5KfSaMYvQulhqy1JpXWjaZi+9g0cHDplWEOZlMd3NbQjfbwma5Tyqet2kdj2hIOCNsZWoGLydUYVaGKnPlXpZZWN2NbvjWMpamvM6AC0jCWllqWvDU+0zIrn0p+Ji3zDJtkhAQ9NpVqna8EldSNSmH72DiQFUOVNTSyqT02raEb1f6ZrlPKpy3bR2PaGh4y2g7R8A3mIqRU2+IIDMmgVU/QKp11REp910oMZWprNEQWDSUvMsOxYGibaKp9qORv0FZpqMyqWRbtwT429D+sIWvMiwJWx6yWKQPlYPtYPpZZ+TTEPuZFFqb90S4CQmOMMcYYY4wx5eMho8YYY4wxxhiTUxwQGmOMMcYYY0xOcUBojDHGGGOMMTnFAaExxhhjjDHG5BQHhMYYY4wxxhiTUxwQGmOMMcYYY0xOcUBojDHGGGOMMTnFAaExxhhjjDHG5BQHhMYYY4wxxhiTUxwQGmOMMcYYY0xOcUBojDHGGGOMMTlloppaCvv1MnLU6MJe2+bjTz8L1998W+gy2yxhr912LeQ2L63xmcYYY4wxxhhTCVq1h/D74T+EPpdfGXps0jMsudLqYaMttw1XXXdjGDFiZKFEebzXv3+454EHw8iRfxRymp+W/MyRI0eGI3ufGGWVptfffKtQwhhjjDHGGGMaTqsFhJ9+9nnY84CDw2VXXRu++354zBv89ZBw3sWXhlPOPDv8PmJEzDN/M/nkk4f/nnBcePvl54rphKOPCLvve6CDQmOMMcYYY0zZtEpAOGr06HDjbXeETz79LGywbo/w1IP3hjdffCZcc8mFoducc4T7H34kPPfCS+HHH38KO+2xd9hgi23Cp58PKlwdwnkXXRp7xuiZUxmOe59yejx/1fU3FnvP0mspT95td90T7n3w4bB+z61C99XWDocedWwYMnRoLFPpzxQEwP/YcZfwf/vsH774anAht+msueqqYfFFFwlfDa7cPY0xxhhjjDH5oFUCwm+//S70e+vtMP1004X/22mHMMP004WJJ544LLXE4mHTDdePZfq+0S+MHtM8cxfP7XNJOO7k/4ahw74JY8aMCU88/Ww47pTTwvAffiiUqDyPPfV0DID7vfVObXJvnjHGGGOMMab1aZWA8Jtvv429ZF27zBZmnXnmQm4IE000UVho/vnj/tdDhoQ//hgV98fHtNN2DjdccUlx+CTstvOOxSGVj9x9W5hnrm4xX/wxalQ4aJ+9Qt9nHg8P33VbWGiB+UPf1/uF9/sPKJQYP435zPXWXivMO8/cYZmllqhNSxVym861N90St/QUGmOMMcYYY0w5tEpA+Odff8WeuVJM0WmKuP31t9/Dn3/+GfcrzZabbxp22XG7MNlkk4XZZp0lrLBc95g/8OOP47Y5mGfuucJdN14brr74wjDn7F0LuY1Dw1dJDz/+ZDjxmCNjkGqMMcYYY4wx5dBqi8rUx4jfxy4mM+MM04eOk0wS9yvNlJ06hQ4dOsR9eiU7TDx2/7faILQaOGjfvYq9kRedc2bY99+HxSDRGGOMMcYYY8qhVQLCmWaYIczRtWtcVXToN98UckPglYgDPvoo7s86yyxh8skmjfsp9Br+9nvlAjcWuBn+w49xf8ba5ypFpT+zkjA0de/ddwmv9XszLnZjjDHGGGOMMQ2ldQLCmWYMC8w/b1zE5bqbbw0//fxz+Ouvv8Jb77wb7n/40dCxY8ew2sorxi09eT/Xnh86bFgM3i6/5rpw5733F+5UmsFDhoTffvutcDQuo2vvw+cR6D32xFPhqWefC9NMPXVYaonFwkQTT9Qsn9lcq4waY4wxxhhjTGNplYCw0xRThB222SoGYQ8+8lhYff1NwtKrrBl23Xv/MOiLL8Pu/9wprLjcsmGqKaeMr1Sgd26fg3uF5VbvES6+4uow2aTj9hzCXN26xeGgj9YGeSuvs2G9r4C4/pbb4ucts+pa4egTTwk///JL2H7rLePiMs31mc21yijvH+TVF1v13NTzCI0xxhhjjDFl0WpzCJddeqlwRZ9zw3o91oqBISyy0ILhtBOPC3vsunPspSPttvMO8V2F9BbOOsvM4ejDDgmnn3R8LJ9lidpAjgVWuM/4mGqqKWOAxz2XXGzRcO7pp4a9dtulWT+zEquMpu8/VOIVGs8+fH/oucnGhVLGGGOMMcYY0zAmqmHi3gQYOap53gfY0vBSeXrTeEUEC7MYY4wxxhhjTJ5pc6uMGmOMMcYYY4xpGRwQGmOMMcYYY0xOcUBojDHGGGOMMTklV3MIjTHGGGOMMcb8jXsIjTHGGGOMMSanOCA0xhhjjDHGmJzigNAYY4wxxhhjcooDQmOMMcYYY4zJKQ4IjTHGGGOMMSanOCA0xhhjjDHGmJzigNAYY4wxxhhjcooDQmOMMcYYY4zJKQ4IjTHGGGOMMSanOCA0xhhjjDHGmJySq4Dw088HhQ222CYsudLqxXTeRZcWzhrTNnn9zbfahc7q/7fTHnuHH3/8qZBrKoF05MjeJ4aRI0cWcsvjngcebPHfpjU+sxrgP87viXyqHXST/z3//6YiG8I92zrV9KwtSSVslTGm8riHsA3x8y+/hCuuvT4cetSx43WQMKInn3FWWLnHBuGq624Mf/75Z+GMqY9qdjyXXXqp8PbLz4VXn34sbLTeOoXcxoMMkEV7cDZbEpx0OzFjsbPbuvg/bNoztrXGtDytFhCqQlOvR5qayxDMM1e38Mjdt0Xn+oSjjyjkth2++354uOOe+8Owb74t5LQf5EDW58BUc8BmGob+fzdccUmYdtrOhdzmRXpHYr+9okaD/55wXJh88skLuWZ8tGXdOGjfveLv2XOTjQs5xjQc/Cf8KPypttZoYFtlTNvEPYRVCEb0mMMPDS89+UjY7Z87hg4dOhTOtF2mn3baMOMM0xeOSjNH1y61322ywpExjUcO0eVXXxv+uf02hVxjrBumfUMA2HP7f4a11lgtzDbrrIVcY4wZP60eEGKw7r75+thipKSWo1dffyOstt7GsQX3408/K1wRwmNPPR26r7Z22PvgQ8NPP/9cHJN+9oUXhRdefiVstdOu8XjPAw4O/QcMLFzVcDCo6q0kLb/GOnEY58CPPiqU+HscfKnP/PyLLwqlxp3/xXPvsf9B8bvV1NTEMpovssX2O4chQ4eGd9/vH9bYcNPiNWrhU4u28kml5pNx3w8GfhifmWfXZ7786mvhr7/+imXUQ0t65733Y1nKrd9zq/DYk08Xn038PmJEOP7U00OPTXqGx596ppDbvGR/h3JbOtNe6N6nnD6OXNMeSZXlM7K/WXZYXPZ8eh/QvSiXfodsOVBZlWlqb4V0SSnVDz0LMkAWyCQtm5Vv9tlKPX9DyOptqREAPCdJz8h+el36G6St39mk73DpVdeGFZbrHm1Jp05TxLzGkD7DVdffGB567ImwwlrrFT8v+12y37WxMuP7ShfS3zR7v6wupr93lvQ+47vmh5/q/u6pXugeslW773tgsRwp/Z3Kob7P1G9dSo6SdVZvJ0SldAP0DNnvjZxS3eCYlNWPUtfpXKnz+n809D/cULKfy3EK9+X7DBk2rF7dENnviI40lqwNkt5lyX5mqi/IkHOUKQXfVb9VOd+zHFL5pnrBfcnL/s7S+7RsQ+A+r772Rrjn5uvCfPPMU8htHJJ99rtznMq3oTLj2XSOlNWx9DdsiK01xlSWNt1DyNCC7bfeMlYA1910SzQGQ4d9E6689oYw3bTThoP22St0nmaaQukQbr3znnDQ4UeFjz75NB73fb1f+E+tEfls0N8BWmP4Y9So8MTTz4Yjjz85fDl4cCF3LKU+8/yLL4sBVCnGjBkTXnvjzdDrqONihd4c9H2jX/jXAf+Oz8yz6zP373VEuO+hR+oEewSOexbKUg75nnHuBcXvIz78+JPw0KOPx2GtTz37XNmGmZ4/egAHffFVIWf8UFkwfPbZh++PjQQ0Glxy5bXjVDLjg2GJDE/keoYIL77oIsX7kUoNXcTBOrfPJcVyXHfMiacWnQm2b73zbvEezOvjeyHbrMOKI8T3Tcudfs55RdlRnuuWW2bp4v1uufrycH/tb9SYig/ZrLLSCsV7IbOHH3+yWPEy/Ix8vhuy4LupLCkdnsb33O7/9gxb9dy0eJ7nLPU9J0Q6VHu3nXcs5I4Leot+XXnR+fG5/3feheGsU0+M8yZffPnVWAa5nPDfM+I+MuWeGv7NdfoODLmrxHC77LPzLPpcUjrsCfnjsJ583FHF88gMOdbnjI4P7B73A+5VSocaOr8UHXit35tFvUZWgOyQlcAm9dxup3DwfnsXy/G/0/NrKCO6RWMe5zlW4nnKBXu0z8G96nwm/0McSGS7Zc/N4nN9/NnfjYLwznvvxe0Siy0Wtw2lUrpRLji5x5383/gf53tmbQtk5ZulnP9wQ5mQ3RA46P+39wHhxGOOjOXS30mwn/0PSNfKpZQNKiWXCf3vpp9uulhu+A8/xG0pZp1lluL/uCHfs6HMMP104ZwLL4773Ivf7cvBX8dGCVhz1VXj7yj7Jr4eOiy8+c57seFCz9UQ+P+1xlDMhshsQraqHFtrjKk8rR4QyulRKxBJFRFDIf+5/bZh7dVXCw/WBiNPPvt8uO2ue8KADz8K+/1r97DQAvPHcgInaeta5+G5Rx8Izz/2YFhr9VVrHfIvw0uv9C2UaBiqdJX6PvN4baW0Wfjk08/CgIF/9xICn7nOWmuEpx68N9x547Wxsuo/4MMYWIGMoFK/F54O/95/n7iADA4wZJ2AbOCiSr4hcyDpMWVhGu5/2MEHxGcnsU/Ad9e994cff/rboSdvlplnCtddfnEcgrrBuj3Ct999V/sdBhRKjGWB+eYNG62/bhz2ufYaqzfZMFNR77j7XkVniMBJlTJ5OCQ4iArY+O57775LDBLLDUjKgUroigvPLX6unE05EzzHHruMddKB563PYeVee+22S9ynHJU7zsDIkX/EvOE//hgDIJwxweeiD42RL3qSOuQ864a1vyeBQLkyIyhdeonFwgbr9CjkhLDLDtvF7TMvvBC3leb74T9E3QLswno91gzzzj1XPB46bFj8r8lRQuaSUX1OVUuCfNFN/pfpb4DM+M8gz8aQBmyldKgh8GzoAI619HqxhRca63C99kaUawrOnL7DfHPPHZ9fwVdz8F7/D6Izr8/Us915z33x2XiG7O9LPs+OfqPn1QC2HYe5PtvSWpRjN/idJG/9Ll8VGkn5TfjNcObT+zWWUjYoS0P+d9npCgSQ6uHimbEt3eacvXB2LOP7nuWATVu++zLF/zC/Pf9D6jfqOY4JXrOy5v/GM2PbqoVKycwY0zq0+TmEU001Zdh/rz1C1y6zhRNPOzNce9MtYdMNNwjrr7N2mGiiiQqlxrL6KiuH/WrL0ms4zdRTh9VWXinmf1LrqI8ePTruN4RRtWUffvyJ8M8994nDKJdfc93aSue+eO6333+LW7HUEouHXgfuF1sCZ5x++joVDzBEk6GaDG9l+OYyq65VbDH87bff47aSfPHlV+H9/gPCogWnarLJJotpvbXXDAvOP38cevtVrUMppuzUKfznkIPCkostGve7lGiVhk5TTBGOP+qI8OQD94R1a+9VLjizBHyCCg9HsJSjqcqQSiVl9q5dYwBFINVcpC3FQAVHED4+B4cW6FKt+RNq3ZWjQk9iY1qfG0LW0WkICiCyz19uL2+54Px1mfVvHeH3zoLzXGrIGDTmu1YKGgNoFMg+sxw+BbTlkr0fznu5i/Ko4aEUWX3Hicv+75qb7GfKVijwLeU0q2EgbUxp62T1uy1T6r80Id2o5G9Snw3K0pD/Xah1E7BbCk6wX2rAQ7/Qs5RK/wey8uBZsWFqCOB82qCoxg6ev5z/eWvSGnbDGFNZ2uQcQrWmiXnmnisGNxjKjh07hp6bbhQDlCxTTdkpTFJ7XnToMPbrjRgxosGvZiAYPPv8PuE/x50Y3n7v/diDNj6o4KeeaqrCUV0YCnXdzbfGYXYEhQzfbG74jN9+/z10m2P2OjKadJJJw6STThLPpc8xTW3wnAZqzQ0VNJX9+x8MDEf8+8A6PRRyQlRhp/P9SE2Zi1JJ6MFOn4se7vqClPFBZU9vJLqtuVjjm+syIZBrOoeDxLCdclEAwbXpvZjPwdCg1iTbewT0WPK85Q4drDTYMg1Py1Jur14lUY9P2rv+3gcD4m/ZVgOqbECy6UYbxN9YTjONRgRY6INpGpWyG63FhP53oWZswwf1Ct+VOuiAvfes03tVqvGpucg2IMqmqQecwPqLrwZHnTfGmJaizfcQAsHBjbfeEXu9CL4uveqaCQ6zIRj79rvv437nzp3DJJNMEvcnxJAhQ8MLtYaZHsY+Z58R3nzxmRikjm/uU30wbPPp58YOrzvuP4fF4aLjG+5ZCTpMPHEMmgd/PSSMSHokRo0eFUaNGh0ro6mmnLKQ27LIyRs8ZEjcsgraL7/+Gj757POxLbkFKEeLYzpsVoneOg1LaQ0IBhnukzZilJrX0lBo/WZuhO4D+/77sLKDQhwdGh5oCU/nXTRG19RzybW6T5qyDTYtiVr0CWa04ABz3C4658xW1YsJwe/SWivoEjjz/0obWWiASIeGtjVw3lOZ0fBGAIjTrB6UCfUemQlTSbvRFkl1iP8Adc+888wdR/agQxzjK9QXUDYH8l30megwuqwecBo75py9a9X0Jhtj2gdtPiD8rjaowwmfbrppw0nHHBm22HSjuHDLLXfcPU6v35gxf4Y///orDtNkEZU7730gBkfLd1+6wa9m4PoxtfedsjZommnGGWJl8fyLL8cgoFxq/qqJzzjZpJPGeXoMcWVFz9vvHjv8tD5oCR/27dg5iOXC0Np55547vD9gYHik9pn/+OOPmG676964SurCCy4QZu/SpVC64VRqlVGc+Zf7vlYb3C8YZptlljD/vPOGt9+tO2yU1lpkUMmhoZW4J5U1lXZzzVvingQ2UO68Ig2dSufW1ceEhn4299DQpqD5i2ljQUs1EtBQUV9PH8OlCKKzQ6ClM60ZvNAbyFC+7EiMpgSDajRojjlCklk6nJUtuk0+34celNbuEa4PPX9zUqn/aDl2Y0KU0gmCd3rzy6W+78ecwHQ0RkP/d2qMpK6hPNfRGElAON20neOztxQ0avAM6WdqruC7/T9o040daoxpbsZna1NoOGVUTbrqqTGmcbR6QIhxzy4qo+WFGb558ZVXx/lV22/1jzh0dMvNN4uLydxwy23x1Q0pvI5i5R4bhKVXWTO+/oF7b7juOmHF5ZeL55lMrs/QkBhWfuNYQ/WYCzhXtznitdv8c/c4548W1J9//jmWL4dOU3YKC84/Xxymud8hh8fn2nnPfeI8PgLVLHz2HLN3KX62npXnhoY8/0wzzhh22GbLeO60s8+L8x9Jl19zXez13GXH7eK8zHJp6iqjguv7vfVO0ZljyNp1N98WHTwN22EIDb0BrMhXKSOv1tjGLu4BclJwNPRcWlUvdVIaCtfqtxVybMptsaY8vZTpwhs0pJQa+oWjgbOthQ2yyPlGt7LP19o0R2NBQ+GzcZ5LLarD8F8Wi0hX5ATmPENrLg4hXSq3kWF86L/QHIs8SWZaxEhojhK9myzU0RZ6hBUE6X+HLKgv0JPmZEL/4YZSjt2YEJq3l+oEq2li26nbyoHvR1CUfj9sEQuxpaMxGvq/47/LqALqGuoerqMx8rCje8dRR+hzS4DNx66mC6aBZLf/oYfHQKgtLCaj/7imdZBY4bklpg2Mz9amUF9S91JWw8mNMY2jzfYQ0jNHAHLPAw+F7kstGdZde63YwzbrLDOH7bf+Rwyy/nd+n1rj+XdrJIuikIBVMY89oldtOrTkfMP6YEGaww7cPyy/7DLxuNucc4ReB+0fTj+xdzwuh0knmSTsvfuuceVOAkAch3/ttku48H+nx8AtC599VK9D4qql9Co2BmS02UYbhPPOODUuFMPnci/uedkF50RHqjFUYpVRjDzGm6G0ah1VCy8LzAjuzTBKKsjsPEKclcaA88gqaAqgSeW2KvJcR/z7oLiv56L1+6arLmvUkFH10Oh5SDhTLEufOrt8Z85pDl/6HbQYTanvRytrfUO/WP2UoDttjEmDP56NHiUcLZ0nNWaOY9qQwfOlwz3LDTh5Lnpos41IpFQ30s/EuUXvdE1j32fFZyNP7qd7p/diwRdWwk2fjWFq6aq1laahusFzaZ5qmhori1L/BZI+s6HgnBPgp/eoT2ZymqEpcx8rqRs8EyuHErhwPd8DZ78xQy6xRZrLx/PwXPrNStmqCf2HG0K5dmNC8EwEEfo9uddJxx5VOFse/J/S/zq9hX3OOiPWFykN+d8p8EVeGoopHUp7oiuJhjmn/zteM4JdLdU7r+dpymIy2GZsNJ8lHZK9Ktd26z9OgIp9iak2SG/sa0QaYqvEhGytwH7wu3pRG2OazkS1gVfdN5CXYOSohq/Q2RpgTDC6TMzufeThzWLcjTGtD04Fznd2zqBsAE4EDqL5G4IEHKvsnEGcQ+ar4nS35rzQcuD3p4eeRrXGOs3GtEVkw9ry3F5jTPulKhaVMcYYWodp+U9b+YV6AMy40LNSqgVdwx2rBXrICAbT9yka015g2C6N2l451xjTGjggNMZUBfT8M7yLBVJYml0QKF5+9bVxv60uNNKaMGyv1Bwb5lmR31ZfPZHCb3z6OefF4Yjje1G5MdUIvfiMfNjz/3bxCCdjTKvgIaPGmKqCYYPMP0nxf3/8aNhoCr2GbX3oJb2CWqTFv7Fpb8iWMbqhrb86xxjTvmkXAaExxhhjjDHGmPLxkFFjjDHGGGOMySkOCI0xxhhjjDEmpzggNMYYY4wxxpic0ipzCI884vDw5ZdfFo7G0oDHaHVY6e7zzz8Ps802W5h22mnjM/Mi+Gp49i+++CKMGDEiLLjggvGZoRqeG3jexRZbLPTu3bv47KZ5uf3228Mtt9wS96tNXz744IMw8cQTh4UWWqiq/qN//fVX+PDDD8OMM84YZppppqp6dp6zc+fO4YorrvB/tAXZddddw6+//lo4qp7/6DfffBN++OGHMP/884cOHTrEvGp5dtmXaq1Lb7jp5sKRMcb8TasEhDvvuENYaqmlwiSTTBL+/PPPaKSqwYn45Zdfwv/+979wwgknFJ8ZJ64a6NevXxg8eHDo2bNnfO4xY8YUzrR9+vfvH+add95w7LHHxmNkLifCNA8EhGeeeWbYfPPNo77gAFXDfxTuvPPOsM4668RGG5579OjRcdvW4T+JfTniiCOK8pZ9bOvwn7zhhhvC+++/H495bv9Hm5+FF1447LjjjmHSSSetmqAEPv744/DUU0+FfffdNz43+lMtz//QQw+FRRZZJMwzzzzxfzpq1KiqsC9AI9/Lr/YtHBljzN+0SkC4y847hWWXXTYccsghRUNaDU7PRx99FJZYYonw/PPPh+7du0cHjqC2GkDWffv2Dc8880x01PjZq6USw+GhJVk9hMi9Y8eOhbOmObjrrrvCKaecEl577bWirlRLQMh/k4Dwv//9bzyuFj2np2eOOeaIwXiPHj1iUFUten7vvfeGY445Jrz99ttR3g4IWwZ6wc8+++yw/vrrV5W8L7nkktjgRGMfwWw1NfKtssoqccTKRRddVFV2EZZZZpnw0iuvFo6MMeZvWsVTwqGnAsCYVkurIGD4ed6xTpq21YGcYj1zNVViPCtOAyB/O5rNj3qQq0lPBM8sR63anl/6XW16LluOvGXbTfODzEnVXZdWT6MN8KxKUE1y579pjDGlaBUrrMqg2pw1kPGfaKLqcnj03NUqd4bl8NxKpmWQrKtJ5tLxataTanKQhZxNnt3/0ZZBel6t+l6N9VFqX6pN7vIDjDEmS6t4HRglOTzVZFCzxrTaKgJVZFBtz67nzf4GpnmQnNlWW3DCM+v5q0nPIdXvavuPinTfNC/V2uOT/X9Wm65Xu9yNMSZL9TVDG2OMMcYYY4ypCA4IjTHGGGOMMSanOCA0xhhjjDHGmJzigNAYY4wxxhhjcooDQmOMMcYYY4zJKQ4IjTHGGGOMMSanOCA0xhhjjDHGmJzigNAYY4wxxhhjckrVB4S8IJaXraYvXNV+Nr+toWcX6fO29WfXs+k7pFtjslSrvug59fyg/Wx+W0PPLtLnbevPbloP9EL/y1L63xbR8+l50221kH3mti5zY0z7ouoDwokn/vsr/Pnnn3E70UQTFY0p+22R9PlUEbCvY51ri/B8PJueGfTs/B5//PFHzDMGqllf9NwwZsyYuIX0/9sWydoT/QY6hrb67KblQV+UQHrC/5N95bdFUvsC7Cvx/KNGjYr5bZFUrvoO8mk4Hj16dNw3xpjmpl0MGZUhhREjRoSePXuGpZdeOrzwwgsxr63CcwMVAMFs3759w5JLLhmffejQofFcW0TPDffcc0/Yeuut43Ofeuqp4ccffwyTTjpp4awxdfXloYceCttuu23UlxNOOCH88MMPbVpfeHb+n9gX9keOHBl22GGH+B+9++67C6XaJpI7W5zmjz/+OCy33HLx2b/44ot4zhghfRk0aFA49NBDo55st912sV5SI0Jb59lnnw077bRTtC9HHnlk+P7770PHjh0LZ9suBH4XXnhhWG+99cJKK60UrrjiivD7779XxbMbY9oH7SIgJJhSq9pll10WHn744fD2229HZzNtgWuLqFeTXpLTTjstvP/+++Hdd9+NgW1b5tdff42B95Zbbhnuuuuu+NzHHHNMWHzxxcPTTz/d5uVuWhacGwLBTTfdNNxxxx1RXwgIF1100fDII4+0aX2RfcFhvvXWW6O+Y1++/fbbNv3cPBvPznPjcJ5yyinhrbfeivblt99+K5QyZmwwiI5ce+21YamllgrnnXde1JPbb789rLbaamG//far00PeluC/SX35r3/9K/To0SPcfPPN0b6cfvrpYf7554//2bb6P+W5eNbu3buHgw8+ODz11FPhtddeC3vuuWdYddVV4zljjGkJqj4gpOWyQ4cOcUvr4IknnhgrLio4pbaInotnZ0gLwSC9bRr+0lafG5Bv7969w/+3dx7QVhXXHx6s2BsWEBsoKEWKXYxdEFAssUCIQbBhXAYFRGOCGBUJgoohWLCEqBjBGkqM2CUqRcSCiIJGQ1GJGqNEEdH/32979+VwBdT3HvfOvPv71jrrnDPnwNtn7p49e08dP358WHvtta0lmcpr8803D/PmzQsdOnQI7777rr0bs8MsigP6QjBCIEWLNw4n+rLllluanhx//PHWKwGx6YvbF+TCUaPRwxtxorcv38iM7Dj6w4YNM2ffA8SY7YsoPuj5rFmzwmmnnRY+/fTTULt27XDQQQeF3XbbzcrvrbfeaoEW5SC2Mop86Pdtt91m+t6kSRMLYvkGGoW7du2aD6xik526/4ILLgivvfZaWG+99cI+++wT9t5777Duuuta402PHj3st8kS2zcIIaoHyQeEtA5SIdCi2a5dO6sAPKjyXsNYQU4q3yOPPDIMGDDA0jD2sTtsc+fODUOGDDH56SXEUSYYv+mmm+w5DujYsWPtmu/hXpQv77//frj22mtNXxgS9fzzz5u+4MAB6QSLEJu+uH254447wqGHHhrmz5+fD6o8UIwVJCMvO3XqZMPnLC1nX2K3jaK4oBe33367lUWCEYZ2M9Ljueees2HGPO/Tp49NCfD3Y9F9eruHDh1q8rRs2dLsy5NPPmk9g8A3UX6BdyjPsfDss8/aCAlkpNGM+6effjr07dvXZKVuJTAE7inPMfsGQoh0Sd4rwEGjJfPCCy+01raNNtrI0jGwGFCOGEEuhs7RAkvlhYO2/vrr2zNkh1hlf/311/Oy0RuI7Mh84IEHhl133dUqXJwJ/w4cZ1G+vPnmm/kg75hjjsnry7777mut+egLTlCM+kIwS4PN6aefbsPSNtxwQ3PI0H+XN0aQ75FHHgk777xzfq4jsgNy8zxW+yKKD1MAfM49vWsNGza0a+qk9u3b2zVDpBcsWGB6QxmIJTBhVAqBKnIx2oBRK1wzfYGhmDTgZOdBxtQYMnHiRDsThNNY5o01nTt3thEUBLvjxo2L0jYKIaoXyQeEGEwClO23396GjTAZHoPqrfexOj0Y/rfffjssXLjQKmBaCRlG51ABxFLhFvLGG2/krkKoW7euyUqeb7bZZmG77baz9JkzZ1olTTpHrL+DWP2wmIkPs6Scur5ssskmYYcddrB0dOqjjz6KTl+Y+8hwrq233joMGjQoXH755SZfCvYF550GM4agMRy9TZs2uafLGp2EgP/+9782ZxC9wYaz0BO6jZ7Xr1/frtEZyqmXz1j0n+Hm+AHIXq9evXzdSQMIcwj9HepaZOdZDHLD9OnT7Uw+M+XCbSPDXTfeeGN7Nnny5HyDWky2UQhRvUg+IKQ1kOFozH/o3r27zVHyigrDHzNUXrQQ0ptGMEhPCQYfOLsTHRu0yHqlRKXrMlOpbbHFFlapMXSXSoxrVWDlDStaug7g5GT1hVZwdASHlB5+15dYyi725JJLLglvvfWWNTbVrFnTZITY7UudOnXCo48+Gp555hkLBrP2hbz37xCC3j8WNkM/Nt1001zqtz3NBCp+/cknn9jZy2gMZYCyiS4jC42SruOct9lmG3tGDyjfF1vZZRVUQFbKpMtFjyG9s8jLb8OZPBdCiNXFt5YzYXbaaSdbZtqXZ8aoYjjd8HvlECNs18AkcpfRnTQ3/NzHChVXtoJyB8G/hZ4Jele4Jz2WClgUH//9V6UvLC6T1ZdYoLeE1QtpeALkQ3ZvrHH5Y4Qg8OCDD87LiI10+8IRs30RxQUdocEAvfay6eUwWx7pZQMvBzHg+p2tO/0b/NkHH3xg8/W5Jz0W2d2OZPO8UDZGWHhjjr8nhBBVTbzezI+gOhjIlL7BK7FCmQsrK6/YCis4UV6sTF/AHTbwRpyU9EW6LaoDlD3Kpx+u19n7bLrfx8Cq7Eu20SNG2V2mbN5CoYzcxyS3EKL6US0CQlFcGM7iFZTjFRrDcmDHHXe04aT+TvZdUV4wzHJF+oITykbvQE8cC0JJX4QoPr4Qi5c7Dzy4Zyi3s+222+au4imjWfvicnt95Pv5MnSUOcsucyyy+4imFclOryDXjRo1yo9QiEVuIUT1QwGh+NGwwAbQu8PcLwcHn4VBgLlhzIGgQvMKTpQn6As6gL74svWAvvgcGuae+gqe0hchigtze738YcO9/HFPmfVyiV338snZe/VLCQuwEFhhXxga6iAbqwQDwSDfiMwQi32pVatW7urbPQkd5t97YxkLt/mUGOQnUBRCiKpGAaH40bCctw/1Y9U5r1yZ/O6r0NGqyUa7PHPnQZQnjRs3zrdws2Kn6wTBIBtGoy8sc08DgvRFiOJDoNesWTMre6zaTc8a1wRVL7/8sr3DPasEe/nk7PVAKWGrIx9d8NJLL9mZg8bKF154wWRE7uwIhFjsCysAe5D33nvv5WVnBXKCW57xjg995Znm/gohVgfVIiB0I8rhYEg5YmjBXBUus5+RmQos+y2xQbDnS2Lfdddd5tiTzyNHjrTFZID9CfmW7HeJ8oSl332lwrvvvtscHfTinnvuCXPnzrVr9jrLltfY9AUZs2US+bLyxorL7Gdkjt2+iOKzwQYb2H6b6Acbu48fP950mz1Ex44da+8QmLByLbj+xwDDWBlyjjz33Xdffq9ENtdnBVKu+TaIzb4cfvjh1hBG7+CNN95oq6Gyhcbvf/97WwSHkRPHHnvscvLGIrsQonpRLQJCDKQbSYy/bz1BWgwtmKui0LgzP49KK2a5GQLYt29fy2eWtN9qq62s1fLCCy+05+wtx+qG4N8hB7R8walxfZk2bZrpD/rSo0cPe86QKN8jL9sSHgtZ+wLI6PKlZF+QOQX7IkoDq3XTi8ZwxU6dOll5pfGPHkPm6V155ZXWEJgtmzGUU2Tr06ePjUJgRU6CQ8roqaeeas+ZP3jCCSeYzsdmX9g4H9ngtttuyw9t/fOf/2xpRxxxxHJ7K4IHtUIIUZUk7xVg2P3I3mP8ffWxWMnK7VAZY/gL02OCvD333HPDpZde+h2Hs0WLFmHSpEm2l5U7ndnKTJQf/PZs3TBgwIBcyregLziczz77rM2liVFfvIxmD2RD1tj12uXNkoJ9EaWBYZVTp061M3gdytD/IUOGLNfI50FJDPqPDB07dgzDhg3Ly8MZGWlsYi9Ozv7My3AMkJfso0wwDsjl5fakk04K119/vaXznqdzLYQQVU21sCzZSoAWtcGDB4drrrnGnE2vuGKHlks21h80aJBVEARUscqOXMh70UUXhRkzZoQRI0aYw0DFy0b79BgClRdke1RE+YG+4MScf/75YdasWeH22283fZkwYUKYPHmyOWsQq764feEb9t9/fyuj2Jf99tsvevvispOnXbt2zdsX5oylYhvF6ofyhq4wvJt5eGPGjDEdZxrAzJkzwxlnnJEPSsD1KoZy6valW7duNkQUmdFxhr0iO34AuKyxBVT0Ct5666022oZhowSBNKrecccd+ZVRyW+O7G8ghBBVSY1vjMv3WpfFS77MXVUNnTt1tA3ZGebhxq6yZP8frv1wI1oVzJ49OzRp0sSc2ObNm+dSqw6XNys/jlxV0LNnT5ObSqeyIBe4rKv6/fz59723Kjp37hwaNGgQ+vXrV6n/R/xwRo0aFa666iqbTwSVyfNi60vLli1tCGphj2RlyMpTGEhVlX1h/hDzoR588MFwyCGH5FKrjmze+lFV9oUAggYiFgmCiv524seBXaRxpV27drmUikNvoOuD64frNteQ/V1Jq+jvTOCDfaFOrQoddFkKz873Pf8xtGrVyhZW4xsqiwezfo1MLp9TUTlXxO677x6mPD8tdyeEEMuIq6msEmSNJtcYWSqaqnLWioF/Q1b+GEG+rKyr4oe+J6ov1UFfsvJQNrNHKmTzNmb7IkpDVh9cRxzus2UACu9LictSeHa+73mpyOYx11n5/BBCiGJQbQJCIYQQQgghhBA/DgWEQgghhBBCCFGmKCAUQgghhBBCiDJFAaEQQgghhBBClCkKCIUQQgghhBCiTFFAKIQQQgghhBBligJCIYQQQgghhChTFBAKIYQQQgghRJmigFAIIYQQQgghyhQFhEIIIYQQQghRpiggFEIIIYQQQogyRQGhEEIIIYQQQpQpNf7vG3LXK2Xxki9zV1VDh6Pah9133z0cd9xxuZQ0mDdvXjjllFPCzTffHHbeeedQo0aN8AOyLwqGDh0aZs6cGW644YZcSjpcddVVYYcddgjXXXddPs85i9XHLbfcEq699tpw0003JZfX3bp1C3vvvXfo3r17UmX0888/D8cee2wYMGBAaNmyZVKyT506Nfzxj38Ms2fPtnuVz+Kw0047hfPPPz/sscceuZQ0ePDBB8PIkSPDqFGjwhprrJGUrp999tmhfv36oXfv3rmUdDjttNPCiy+/krsTQohllCQg3LNlizBr1iy7TqkiACqvr7/+Ojm5IUWZAZkPPvjg8Oijj1rer7nmmrknYnXRr1+/cOWVV5rOpKbvyIm8Keo7ur106VKTPTW22GKLsGDBArt2J1+sXrbeeuvw0UcfmZ573ZQCLm9q5TN10I/PFn+RuxNCiGWUJCA8/thjwkEHHRROPPFEu0/FcXjnnXdC27Ztw5gxY6yFMCWHZ8KECaF///7hqaeesnt+9lTkv+SSS0KtWrXC1VdfbU6EWP2MGDHCepXvvfdecyJSyvfjjz8+tGnTJpx55plJldElS5aEI444Ipx33nn2DV999VUy+T5p0iRrRHj99dftXsFgcahXr571KO+11152n0q+0zPISJuHH37YdDwlfRk2bJjVo6NHj06qHgVGZU2aMjV3J4QQyyhJQNi5U8ew3377hV69euVS0qjI5syZExo3bmzOT/PmzZPqrbrjjjtC3759w5tvvmkyp1SRde7cOTRo0MACw5TyPGVw2AYPHhyeffbZsPbaaycVFO65557WcPO73/3O7lORe/HixaFhw4YWWHXp0sXKZyqy00j261//OsyYMSOvKyk5yqmCvjC0u127dvnethTyffjw4WHgwIE2jWGdddYx2VPR9T59+lhAiG10mVPR9WbNmoXJU5/P3QkhxDJKYoExorR+Y0RxHlKBSmuttdbKy+yBVQqQ3x4EpjYkDVld9lTyO3Uoo+g5wWBqeY68zMdDXzjQ/ZRwXU/FQc6C3D7sVRQXr1NTANuS1fFU5Aby2Rs9/DtSISVZhRDFpSQeR9aIYlRTMlI4Ojg8LnMqsnvwSn4T1KaEO8ig3sHiQBkFDwZTCk6QmUAWneFISWdSDgaR3Q/yX6x+yGsnNbvuQZWX01Rwe5KabYGsvgghRJb0vA5RIVQRCCGEEOWL/AAhxMpQQCiEEEIIIYQQZYoCQiGEEEIIIYQoUxQQCiGEEEIIIUSZooBQiBLD4gq+CmzhYi6a8yFE6aEcevn0MprFV54UQgghUkQBoRARwGp7bOq9aNGi8OWXX+YdUFayk6MpRGmhHBL0ffzxx2Hu3LnLBYCUU1abTGmlTCGEECKLAkIhSgyOJMcJJ5xgR3bvP5zOFLcgEKI64UHfrbfeGnbbbbcwefLk5RprvPFGCCGESBF5mkKUGHck6XWg96FDhw7hs88+szTw4FAIURq80eaTTz6xgPDEE08Mr7zyiqWpfAohhEidahUQesVceI6V6uBIpJLXMUPeef517do1PP/886FPnz7h888/z2/cXF3yN2V9KZQ99m9IMY+/j1J+E72B9N43btw4tG7dOhx++OHhzTffzPfgV6eh3dVRd2IkFVsihKj+VJuAkMrYHWeuOcfsSLtcWScie+3fESMuO2eXk7zmHKvMq8K/oVTyk3euqzibTz/9dLjnnnvCpZdeavIwp7BQl+lNTAWXmzMHsvM92XlYsYOc/htkf4fsdUy4XFk9ycrK96SmQxz8Bsheinznb3/xxRd2vvHGG0OLFi3C/vvvHxYsWGDyeGDosi1ZssTOKZDNz6xeYHu8jJYiz38IyFWoE4V6H6vsrs+cnaVLl9rZv0sIIYpB8gEhBrPQaGJcOagUUqgICmX0yiz2uWPI7zIic4ot5eQ9smcr5GJDfrkMyFO/fv0watSo8Oc//zlcfvnl+TmFWT2JXTdWhOuLl03mZHl6YRmIBeRamT7HLLfrEnnsMvrZdc3zPwWQHbldh4qN6wB/G1nWXXfdMHLkSCurzPtlMSjH9WKdddbJ53nsuL6Qx56/3GN7vLzG/C2e5y4j30Ca/258Q4y4zJ6/HGuttVY+KIxVbiFE9SM9r3IFYDyZ7L/33nuH9dZbL9SqVSv89Kc/Dc8991zujfigonKHzCvcP/3pT5aGI/HOO+/Ys5iZOnVqOP7440OdOnXMQdp3332t5dwrsxQg77MOZikqYP6+H+7QHHLIIWHw4MHhD3/4gwWG6Ifrib+TGtOnTw8nnXRSqFu3ruk45XXo0KHWkxKr4+PO2t133x1atWoVNtxww7DpppuGo446Kjz22GPR/hbYF9cn8pYyOW7cOCun5D0r2qYGtpFv4tuKrS/8XUAG/j75Sj1z3333Wd6efPLJds7meynkrCjIy0FZ/N3vfheaNm1q37rddtuF7t27hzfeeCOfB7GB3ARRnteU17POOsuC2dq1a4f//e9/lh4rrtfI/e6774Zdd93VyiiNgUIIUSySDwipBDCcVADTpk2zCu0///lPeOCBB8KBBx5ow+9iJOs0wNtvvx0GDRpk19n0WHn11VfD0UcfHR588MHw73//2yozVt7r0aNHuPjii22oUQqQ16eeeqpVwDgVOBH8NsU+cApmzpxpcqDTHD//+c/DgAEDwmmnnWbOPDrBe6k4mVlwKNGXe++9N7z//vv2LTQo9O7d245Yh9eR18OGDbPfYtKkSTav89NPPw1/+9vfQtu2bcPYsWNzb8YFOoVuUy4BR7Nv374WtKRgXwp59NFHrXzyXeuvv/5yZadYB3//sssus6AavSAfCTjuuusus4fHHXdcWLx4cT5vUyqnyMpCVvR2EhC+9tprlj5//nxrbEXXP/jgA0uLDX4b8pzfA1544YVw//335+9jhnynjHLmGD58uNnKbNkVQohikHxA+K9//SvcfPPNds2cDiqyRx55xFryMbBXXHGFOZvZCiMWZwh5cPAJqI455ph8KyzpnGMFp/jss882B2GLLbYI48ePt9UxWWiBSmzIkCHmIGUrtVgdUHTkww8/NCeIQAXHmXMpjoULF4ZDDz3U5HJdPf3008PAgQOtB4IgBHiG3P6O563fxwbzrs4999zw3nvvhc022yyMGTMmv5oqAcr1119vTlxWX2L5FvQBfYYGDRqEF198MTz77LNh4403trQrr7zSvi9rX2Jx5JCHIOajjz5ablVMwO6kBL/DnnvuaeUE3SksO8U40F/O1113ncnkebnzzjuHhx9+2OwgdtEDyGwZ9UA8Fr1eEU8++WR46KGHTPYuXbqEefPmWTCIDpHnv/3tb023s/ody/eQ18hNow02FJ3nHvn8d4oR7AZlkTNzxrEn4N8jhBDFImmLg7GndZZKevPNNw933HFHaNiwoQ23w7jy/B//+IdVEhhYDgxvDBUEchBYXXPNNWH33Xe33iGgsvWKjHdi5J///GeYOHGi5eOZZ54ZjjzyyLDttttabxZDdqngGGIHfAvOUOyV2wYbbBC23HLLkh/0UAJ5iw5w9OzZM/Tq1St069YtPPXUU8vpBtexOz4suoGziXy/+MUvQvv27U1faKwh3/nmv/zlL/au60ss3/LXv/7Vhm8j54gRI6ys+lBXZHz55Zdt6CjXHF5+Sw36QUPYTTfdFFq2bBmmTJmST0dOzrHal5WBnqyozBT7oLERKHPAb85WFDQW/P3vf7fGD575c/KZoCoWnV4RyOhlsF69elY2mQpwyimnWMMNMHSdsuz2Jhabg+yMCsJOUhf5EFHSs7LGCiOb2rVrZw1/hSNrYpZbCFG9SDogZHgOLbOw1VZbhV122cWuqaQOPvhgG9qDgX3ppZcs3SuwGCoxKiqcygsuuMBanvfbbz+riJHRHbUYHMsVgeNDHiLrPvvsk6+06EFp1qyZOaLMFyPveZZab0QMuI66DvTv39+GLTJ3jW0p/Ln/DuB6ExsETTjNyMk8U5cXfd9jjz1MX3iHc0z6gsyPP/64XW+00UahUaNGdk2eY1+YS4iOM1QakJ3fy3+bUoIcNJbRY8UoCvKZuUnI6Pkfq31JCf/NKXtNmjSxoGr06NG2bYw7964Pnu8xwigVhnAjI40eW2+9taUjOw2spNNQwxDS2KCcsl0PPbf01hNcMRIB+F2QPYYyuSIIsFnvgCHRyHzQQQctpy+xyi2EqH4k7RF4sIfRxJj60AsqaIZ0uTFlGKlfc47FcabFm55NWl4nTJhgvZuAjDE7a/QQUlkhIz095Ccy16xZ05xkvov9uWi15Z2Y8jwl3CFgbg/5R28yrfUsdc+QXJ5RBjhDrDrD/FjvOdt+++2X0xf0n94T3mHobkz6ggwzZswweegVYn4nacjIPXIDv4XLy7t8awxQDglkcZTpoaWxxlEjTeXht+agnLo9JHgiEGcxqBtuuCGvFzwH3o8RNtyfPXu2fcNOO+1kciI7esK0ACAgnDNnznLf4N9VSpAHOWlgooGY0SkeEELMuo4NoZzSwIQvc9555+VtjNtCIYQoBskHhF4hccZ4YkQxqCw8gLHlmhbybMXMO6UGeRg+RwVLzw+VAhWug5wxVLYrgkDPHQbw/KTi9V4T5p8wJJZv4L0Y8jwlPM/IPx+GC7fccov1Eh577LHhrbfeMh3nnZgdB+bzuL4gq+sCaThu6D1zxGLTF+TwMsk1+G9CMOsBIg0kHgRyH4MDiozoCbKdc845Jmu28QA5eUdUHPKPgzz1fOWeOWwstsXiWqy67Hnt78QIASHyZb8JXUevN9lkE3uHNHoSvSxwH8M3IQONHowy+MlPfpJvqHH4nljB/j3xxBPWIMwoJ/Ib+6HyKYQoNsl76Vmj6ddUEFz7PcNIqNxiqcAAeZiPQmXrsjnZ74gRlyt7zv4OQJ6TxjO+T/w4svrq+Ud+Ehz6XFkaEjyPC/M/JpDPz3643P4sVn3xfHU5HdL9GUPX/VtikR1ZcDbpgc3qUlZu7kXF8d/bz57GccQRR4SrrrrK5rI/88wzlub5HiPItyKyjRvIT6OCf3MsICNb2WAbkc113PM75nxnWgujbJDb85WgMAXZhRDVi+Q9dTeYhRWUVwyk05rvRlYGtvJk8zCb71y7A0Ge+zPleeUhD9FpeqxYjZaFCFjchDzmmZ9jJGV9WZksLitnHFFv0Y/1NxDFAX1ABxjmzRYr22yzjc09RT/8WYxkddcDEydbl3qvuHqwhBCiepF0QMjQECorIOCjwvKKd9GiRflKi811/Tpb0YmKwbwk8pKDAMXzldZjhpMCrZ60fvrvISoHeQxs9cFKeswlvPrqqy1v/bfwd2KD+bwuX1ZfuGbeIOA4ExTGpC/YFh+Si1zg8jG81Yes77jjjvbMv0uUL+gAR+fOnW3xJ/bDpZfW9T5WmGLhoNfgOu82HfnZjN/TpetCCFF9SDogpLXSV85js2hWKfTWTJae5sw9q18yR8/xCk1UDBYdAHp3WCUNx4C8xulhjgnwDkPW3GlQnlcO9JjFkegVPOyww8LgwYMtb1PIVwIm5OdgP7OsvrBlDOywww7mOLu+8LzUIK8v9MSQVoJA0pCNYaI+J48tB7BFDo1TojyhPDJnk+2OOOrXr286k61/YgRbzYJP6DZz7imbrus02qDn2HvKcnaOXgzlVAghROVJOiCkB4oJ/FRWOJYsskEFxUFlTIBIRcyGxqR5Bcc5NpDLneHYadq0qTkHyEwrOGdglTqCFvKX7SjcSU7h20opH/njeViIp7MK50knnWRbq7BZNL1u5LMfyB+jXkPjxo3zusB+eP5NLHjCZunIzV55lGdYWV4UG+Q68MADLW9ZdIOhui4b+3CShn054IADLI33ee7DYGMiljytCkrxLf43ORf+/ewz9gulV5BN6lnV1e0KZz9ihJVE2ZoEKJM07PE9BLjUpUD5pOGGdNf1mL7Hf4dCVpYeEy5jNj+5TkF2IUT1IOmAkErp9NNPt9ZNWjHPOuss2+6AvcN++9vfWmXWqlUrczYhRuOalQl5qQQ82Iq1MqDHlV4R5CM4YUl79lLs3bu39dQiP6tg8vt4D1asjhDfgLwuZ3auabEOIH+QgcPTaKUnneHP7K1FDxqboLNJOs9SASeSRgS+684777RvQF8uvPBCC6rQk+OOOy46fUGGk08+2fZkQ6/Z048GD/Yd5JrfoHnz5mZjeNd/t5jIysQ1crq+xyjvyvChu8A3FLucAnnmeunlj2ekc3/55ZeH4cOH27YTbA1Dg6Tj/y5WyN+f/exnphusfM2+p5TRP/3pT+H++++3dxgGW7t27Xx+xPRNhbIgI/aE74k9710+1yXwMso3CCFEMUje2jA0EecMo0qrPUNIW7dubY4mRvU3v/mNLfrgcwzBK7QYyFZWXHNkHY8YYQ829noiQFm4cKHld506dczRR26GTLG5MXnOb0B+x5TnWZAXZ459w+jVZON0hmWW4iCweOGFF0wmnEmcNPKXoIPVaFnK3iFfU4H5SayMSmDFFhQEt+gLvSh86xlnnGHfj977d8WiL6xeyCbjyDl9+nTTa5z9jz/+2GQlqPUAnXcgBfuSmqPJ8Fz2hNxrr73sKEU55W/yt5m763YNOA8dOtRWFP3rX/9qQ7pJi32YaBb0grnJrI6KbrBdBrpPIyvDpWnUueKKK75jd2LUdWTy62y9HzMuY/YbhBCimNT4xvB8r+VZvOTbSeZVRedOHc35xtHKGu+KwL/HeR49erRVYgxhJGA56KCDQs+ePc15c+fHA62K/j2GRDZp0sR6CHDSK4tnPfLg8LBv2KOPPmrp9HRSCVeV43b77bdbrynzQyoL+cjB0KKBAwdajyw9tDhL7K3YvXv35eSurANKyzS9kv369au0vqyIsWPH2h5W4L9JKSAoHTFiRGjbtq3dk6e+V+VTTz1lC684yFlVurEiRo0aZcvmU56gMnnO74+8bOCOvtBwwJA0eu7ZOuOXv/zld+b4Vubb+H/btGkTBgwYkEupOMhN2Rw3bpw5/Qx5xSlmv7MePXqEww8/PC+r605F84p5ieg5gUW3bt1yqRUnKw8Ba8eOHW04o/8WzI+sKh0aM2ZMuOiii+z/haouowwvHjlypMmLfpQC8o3RECxSRs8ZcvCd1DvsOUijR/v27b/z7VWdF1nQlyFDhlgjS2VwXUEHr732Wiv/2HeCQgJF6lL0xb+lsmWUPMO+UKcWBpkVIavrBLAMU0dnWASHqSQ0SlXV74Dfwt6BU6dOzaVUHJfboXyeeOKJln7JJZdYnVeV+kOD1pTnp+XuhBBiGdUiIOTfe+XsadnKqrDyqujfrOqAMIvLmD0jY2XyJktVBoSFec5BmpO9d/krmuewugNCz3P/v7PfUgz4+zhFLE+Pk0TDAAuYnHbaaRaQvfjii+bQIJe/6zKvLqoyIPR8LdQXT/d74Br8WUWo6oAQObKye95nn2V/i4rKvjoCQpejUNbs91QFqzsg9NEGwLcUG88/fhvm89JwQxoNBV27djXn/Ve/+tVy73peV3VeZKmqgBAK5ea+8Bv83vF/82Op6oAQsvJz5h5Z0Z2q/B2qOiB0Wf2cxb+hqlBAKIRYGavPoywSbuTd4HMUGtDCe/83MeEyZs8xygmFeQ6c/cjeO9nr2PA8L5S9WAd/n4rfnQJ6c+hlpSft4Ycfzi8JzzN3nlzmFEBuKNSXFemPk70uJS5HVlbP+8J7JzbZoVDW7PekQDZoQO5iH+RX4fBDGkvo4f71r39tw+Sz73JG5uz7seOyuo6s6Bv8mRPT92Xl59pljfl3cLmy5+xRmN9CCLG6kLURosTQou0BIdf0NrCQA8OgGZ5GuhCidFAuCSwoiwSG9A4dffTR4dxzz7U57P5MCCGESBEFhEKUGJxJoDX43nvvtTk89913n81T82dCiNKR7W1iTinzMdnyqG/fvvnh3EIIIUSqKCAUosT4nBcgEGTZel/tz9OFEKWDgM+DPlYSZS4W5bRmzZr5oX0qq0IIIVJFAaEQJcadSbZHGTZsWOjQoYOluwMqR1OI0uJB3/bbb2+rALNIF2R7BtVLKIQQIlUUEAoRCdOmTQtdunSxYWk4oAoEhYiLU0891bYG2Hjjjb9TRlVehRBCpIoCQiGEEEIIIYQoUxQQCiGEEEIIIUSZooBQCCGEEEIIIcoUBYRCCCGEEEIIUaYoIBRCCCGEEEKIMkUBoRBCCCGEEEKUKQoIhRBCCCGEEKJMUUAohBBCCCGEEGVKjf/7htz1Slm85MvcVdWwR4vmoXbt2sltvv3ZZ5+F5557Llx66aV2//XXX4e11lor/IAsLDnIeM0114SWLVuGNdZYI6l8//DDD8Omm24aJkyYYJu2f/XVV3YWqw90/Oabbw6NGjXK53kqOkMZPe+888Laa69tuu7yp8Dw4cPDlltuGTbffPOk7Au6MX369LBw4cK8vCnZmFSpVatWaN68ueU1+Y6+p8C8efPCF198Ebp06WIyI3sq+vLJJ5+Eu+++OzRo0MDuKaOU1RSYMWNGeOvtd3J3QgixjJIFhC1atDAj6hXBDxCj5CxatCg89NBD5iS7s+bfEDsLFiwweQ899FC7TyXP4d133zXnnoDQkbO5eunXr1+46667wl577ZVL+bZRIQUeeeSRUKdOHSub6AkOZwoOGzK+8cYb4Sc/+UnYZptt7N6d5RR44oknzM542VQZXf3QeNC6dWvTEY5U7Ppbb70VXnvttbDddtuZzNRNqTTazJkzJ9StW9dsI3mdin2BSZMmhddefyN3J4QQyyhJQNi5U8ewzz77hN69eyflPMyePTs0bdrUeiCaNWtmaam0yPbq1StMnjw5TJw4MZeSjsP285//POyyyy6hb9++dp9KnqfM6NGjw8CBA8OUKVNMT/xIAXrBcZL79++fD6hS0BkanHA0H3jgAQsK6dlMJc/Hjh0bLrzwwvDqq6/mA5NUZE8ZeqmGDBkS2rZtm0tJw67feOONYdCgQWHWrFn5XvBU7PoBBxxgfsCwYcPy9iUVXac3edKUqbk7IYRYRkksMMYTZyc1Y4qcyOuVVypyF+LfkAqe75z9Wqx+PCDxcpoKPkQ0K38quH77N6SE28SU8jt1vB4l371HPAWQ2eX1IyW8PkppKD2k0pMphCg+Jau5MUwY1ZQcTWT1ytfvU8HzG1KrgJE7K3NKsqeM6wtOT0pO/tKlS/Py8g2plVP0mzz3npNUcFlTkjl1yGu37SmV0UKbkpLOeFDFmW/w+xRISUeEEMWlJNYB48+B45OagXKHDVKSPRtM+ZEKKTkL1QXy3HU9tTKalTk1XXcIBiEV2d2me1lNMc9TxIOR1PQcWdEVlznFujTFEQgpBa9CiOKSlqcnhBBCCCGEEKLKUEAohBBCCCGEEGWKAkIhhBBCCCGEKFMUEAohhBBCCCFEmaKAUAghhBBCCCHKFAWEQgghhBBCCFGmKCAUQgghhBBCiDJFAaEQQgghhBBClCnVKiBcunSpnX3z1dg3YS2UL7uxc+y4nP4NX331lZ1TkV8Ul6T1JSej2xeXPXb74nI65LXKp/ghmG7n9CUFvXH5/JyKfSm0JbHLK4SoviQfEGYrgjXXXNMMa40aNSxtjTXWiNZpy8qNjH6P7H7vabGBXJ7HwD157/IuWbLEzkLA9+nLl19+aecYMRm/kd1lpmxiV4BzYdAVC8iLfJzdnvAbcHDthxCQ1Qn0xeqhnH64zsSKywv+Da77ELN9cR/FbYnl+zf34GchhCgG1aKHEMP/+eefh8ceeyzccMMN4dZbbw2vvvqqVQReUcRGVi6vvObOnRuGDBkSrrvuuvDpp59GK7tDhfXaa6+FO++8M1xzzTXhySeftN9hnXXWyb0hxDLQlzfeeCOMHDkyXHvttVZe0Ze11lor90acUDZp5HjqqafC8OHDw0033RRefPFFS6Psxgi2A7k5+/UHH3wQ/vjHP5qN+fjjj6O3L6J4uC6gJ//973/D+PHjwx/+8Ifwl7/8xeol0jlixGXHvvzzn/8Md999t+n4ww8/HD777DOzL7HKDshPMIgtwWe5//77zT5OnTo1armFENWL5ANCDOmCBQvCEUccEY488shw7rnnhrPPPjs0a9Ys/OY3vzGHM0a8AnCDT2U2ePDgcMEFF4TevXub8xZzZcDwuUsuuSQ0bdo0dOnSJVx00UXhsMMOC61atQrz58/PvSXEt6Dv/fv3D40aNQqnnHJK6NOnT2jdunXYc889wzvvvJN7Kz4ol//+979Dhw4dwuGHHx5++ctfmo1p2bKlnWm4iRHkxr5wxuHkTDDYs2dPsy/vvvuunE2xHJTR119/3Wz6McccY7ryi1/8IjRo0CDcdtttubfiwwOq66+/Puyyyy6hc+fOZl/at29vsr/yyiv5oDFWfPTB9OnTQ9euXS3vH3roIUsTQohikHRAiEOD0/Ozn/0sTJ482e4x/AQrGFICLFoKY8SHzHlFNXr06HDzzTeb7KT5ESPkLT2xgwYNyqUsG5bz0ksvWVBID4QQgL7gUBIQgpdRmDVrVjjggAOsASRGkLV79+7Wm5m1L0B57devn13Hhjc2uQ2ht2TgwIF52Un3Z0JQRmlY3Xfffe3sukOg9cUXX4Rf/epX4emnn869HRfIeO+991pjKnJzkMY30fBBw9O8efNyb8eHl8NFixZZIJttxMZPEEKIYpB8D+ETTzxhQyvgsssuC//73/+sQjvkkEMsDUf0vffey1cUVBKcYwBZqGyvuOIK63ngutCRi5GFCxeac8+QOZx5Kl0cTdKQnR7Cxx9/3N7lG6mcY8lzUXz+85//mG6g3/QIoh/oy9VXX216Qfn8+9//bu+iKzHpy6RJk8Ijjzxi8vTq1St88sknFrweddRR9hxHNDukLib74vLQKHbqqada/rtZwc4IkYVGSfR77bXXtqGi2PeZM2eGnXfe2a7pWaZ+RafAdb7ULF682Bp/OdMj+Pbbb1sDJXU/8lFe+TbwQDEmkImG1DZt2ljQzT31v/sCQghRDJL2CjDsOGRUBNtuu6215NesWTNsvfXWNpyL1jUqh2eeecYMa0xBFrLPmDHDhqHRy8DQM5/r4EdsFZfz1ltvhffff9/yk+E55DfXDC/id4AxY8aY/J7nMeW9KC4ETDTSoAOdOnUKtWvXzl9vt912dj1u3DjTFw9UYtAXyuDf/vY3a7nfbLPNwjnnnBM22GADu2aINLaGxpAJEybYuzFBXs6ZM8ecTBz5jz76yBx9xHTbguMpBBBA0ShDudt7771tuCX1Z8OGDcPRRx9t77zwwgvf6WmLoZyi22+++abJcsIJJ4Ttt9/e7AjDvOvVq2fp9JBn66NYoDeQnnt6ZqdMmWJl1GV0P0AIIYpB0gEhLd4sZILR3HjjjcMWW2xh6VQGu+22mxlXKgFa30hzhzOGSgE5mCNADwTysFDFwQcfnK8AvJUwRghkkQ1Zd9xxx3y+brXVVmHXXXe13h/ewZHmPQ17KW/oZUCf0RccNNeXWrVqhSZNmpi+MHSU3gnXlxgcIWT+xz/+YTIR/KHfyIXsOMobbrihfYuPUICY7MvEiRNtIRzA6cTJB+Tj23hHCPjwww9t/hr6TSMNDR+AjrRo0SJfHgm8SEPvY4GFqqhrkJEeQs7o+Kabbhr22GMPsy80DDNSwcunf0+pId9vueUW82Wo/1lMhoZhbCBlNKZ8FkJUb5IPCBm+iJEnIMR4uqFff/31844li0JkiaUyIIBlqAuVFQttgDtp37bmxyFnIciLbFSsOPXuAFOR0XvCPa229Nx6hRbrt4jVDyv/oQfoNkGV6wvlkzLAPc4areUxOUDI4j3h6623Xl5uIED01XSxQei363gsur7JJpuEyy+/PMyePdvmgLn8yOeNZUIAdSSri1Im69SpY2mu0wRWgL5g112/0acYdJ0glaAP+8IIFdfzrL2hsYnhrjHIm4X8ZkE8Gp5oIGa0Db21yMkzDiGEKAZJB4RUUFQEnDGgVAAYf+6zhpShU6TxnPe8wiglyHHGGWeEHj165Csxl92fI2+MUGEhKzJC9honmWuCACrgmPJclAbXF9dtKNSXf/3rX/ke5Vj0BTmQvdC++LXrNiszeo9bTLIzfI5FKujFRyaXz5/L2RQO+uuH67DrOo0HwD1DvyEmXaeMgpdT8PO6665r18xTJih0YpAbGD5/4403hv33399sIXKRt24rY5FTCFH9qRZjhjCg4EY06/g4GNZYKjBwOTj74RTKHhuejxxcf1++ruqZqP4U6gusTCf8vZjAniBT1klzvXc8LRbZXQ6XPStXVm4hwHXX9cV1xOtWIM3f83MMUC6RJSuPX2fTXOZsWqlZkcwrCmyFEGJ1k3RAmDWgXHvlVVhp7bDDDnbmcKdOVBx6FrzS4pp8Bc9zYB4Kw3YhW8GJ8uOH6Au95MzJg1j0xeV0m5F1jl12zsyLdEfa3xUiJdZc89tGVPQXPXbd93LIGR2nRwti0nWmKrjN8HLouIwMHWVaCfCef5cQQohvSTogZCgLk9+pAJhP6Iaee59kDsxzo2LgoMKIpSJLFfITPJ8dhu74fnKbb755fjhg1pEW5ceWW25pZ/Qlu5E7w719fi/zlGLTF+R1JzI7NB2Y7+hD1XyxGdkXkSobbbSxDa9E5xlaiT5zcM/CJ5y5Z14q+u267uWhlDDvDlmQkXmQDjIyVBRobGIecAzyCiFEjCTtqVOBsUQ2Rp6N0JmzBtwz18HnLjVq1MjOHOBnUTFYSdTzky0ogDzH2WcuGOms9uY9PqK8YUVOWvHRCxY4AfSFxgT0h/T69esv14IfA/RmskohEAC6s4l8LDbz2Wef2f3uu+/+nZ5PIVKCxZ1YmRvdZs49DazAvdt49Do72iaWcso+id4w/Oqrr5pcHJRZVi8mnRErvjiOEEKI75J0QEiPAhtEY/DZH+mxxx6zdCbG33PPPdaqTyXQqlWr5SoxzqXGK9Ps2WV0OWOladOm+RbZsWPH5ntE2ELDHf4jjzwy34LM8xjyXJQGHE1fMCGrL9OmTTOHDR057LDD8nrvZaHUoL+sAMiZVVB983zkHzlypDVAEcS2bt06L28ssiNH4Rm5socQDvXkAQccYNfYcbaKAepQ9vADhnXXrVvXrmPSI4Zse7DH/rfIDNgWtpxC9/EBvD6CmPQfWbApXkYdGpn8W4QQYnWT/Fi+jh07Wg8EvYGnn356OPDAA23FruHDh+efs8oeQaLjlUIpccOfrQCoFHCcIaYKqxCcgjPPPNPycfz48WGfffYJhxxySOjSpYulbbTRRuYke9DIEUOei9LAkMqzzjrLdODxxx+3Xn30pXPnzpZG6z4NO97LFpO+INeee+5pjtn5559vTjPO5VVXXWXPafigNxz74mU2BtldFj9D1r4IkQWd7datm9lsetaOP/54K6P0kD/33HNWNi+77DLrSczqdwy6zlx16iMgAPT66LjjjjP5GCp68sknL9eLH4PcWch3oIx6vck1IyuEEKIYJB8QMizx+uuvt2EjtOJTeT3//PNm8Nno9eKLL84bWK8Esk5STCDXkiVLcnfxwtxNNrrGaUBeNjRmA2zmmtCK/MADD9heVuS353useS5WPzg17IdH4wwNNy+++KLpC/v3Mf+H3nwabSA2fcHZHDp0aGjcuLHNrZo8eXKYMmWKBYD77rtv6N+//3L2xW1MrLh9SUFWUTzQX4Y+33bbbbaXLCNuJk6cGGbMmGGBFMEiDTj+rutODOWU8terVy8LCimXL7/8cnj66afD/Pnzbc4j39SkSRN712WPQe5VgXwEhLHLKYSoPiQdEHqlRK8gQSBOJ635tNqPGjUqTJgwwQITjKq3wMVkYLNOGfLttNNONhyzWbNm5kRnezVjgoqKVtfRo0eHcePGhaOPPjo0b97c8p8W2kMPPdS+x/Pcz6I8QY+Z73vnnXfa8LNjjjnG9OXSSy81h7Nt27ZWLr1sxqQvlE96SQgCBw8eHPbbbz/rfRgxYkR44oknbO5j1r5wjsXGFNoXgm7sC44/jTqx2hdRfLxn6pRTTgmvvPKK9YYTRHXq1Mn0nL3yfB5wLPrtoMf0fNMwzAbvJ554otWhF110ke0RSkNUVu6Y5Pcy6uWUYJx852BkBb+LEEIUgxrfGKJvLdEqWLzk29X0qorOnTrasA42TebPV8ZAM5TLh1VQMfB/UbG5kc1WBFCZv8f8OAw1vQQ4tFWJ/wzI5rJX5ZCRnj17mtzPPPNMLqXiFMrqZ6cwPXuuCLRMMyyvX79+lfp/xA+HBhWGRdLQApXJc9eNQn1wCtOz54rQsmXL0KZNmzBgwIBcSsVZlX1xsnJWRm4W2aGH/cEHH7SgsyrJygvYFtKqyr4wdwsHnEU9oKJ5IH4c2MUhQ4aEdu3a5VIqTlbXPRBB1wFd4fB78CCyIhBgYl+oU+mBrAxZ2Tije5zB9TCbnj1XBIaM07DCN1QVnpfI5Xnv8lU0j1cEjUFTnp+WuxNCiGVUnaUpEVmHhorFjSfGlOtCo1/RSmB1g1wum8teVc5aVVMoq59Xlp49i/JjZXqxsvTsudSsyr74kSUWuQvJysvBt8RqX0RpyOoDeu66DuhM9h4K70tFVjau/ezXkE3PnmMhKz9l021NLHkshKj+yNoIIYQQQgghRJmigFAIIYQQQgghyhQFhEIIIYQQQghRpiggFEIIIYQQQogyRQGhEEIIIYQQQpQpCgiFEEIIIYQQokxRQCiEEEIIIYQQZYoCQiGEEEIIIYQoUxQQCiGEEEIIIUSZooBQCCGEEEIIIcoUBYRCCCGEEEIIUaYoIBRCCCGEEEKIMkUBoRBCCCGEEEKUKTX+7xty1ytl8ZIvc1dVQ+dOHcOcOXNyd+mwdOnSMGvWrNC0aVO7/wFZFw0ff/xxWLx4cdhmm23svkaNGsnIv2jRotCtW7dw8cUX51K+lV+sPkaNGhXOOeecULdu3aT0HObPnx/q1KkT1lhjDZOd89dff517Gi/I+vrrr4fddtvN9BuZUymn5PGXX34ZXnrpJbtW+SwODRs2DDVr1szdpQM2feHChaFevXrJ6Ljz3nvvhc0228zyPSX7AnPnzg0L3ns/dyeEEMsoSUAohBBCCCGEEKL0aMioEEIIIYQQQpQpCgiFEEIIIYQQokxRQCiEEEIIIYQQZYoCQiGEEEIIIYQoUxQQCiGEEEIIIURZEsL/Axvx0n2ZqZ1zAAAAAElFTkSuQmCC;" vertex="1" parent="1">
          <mxGeometry y="30" width="900" height="608" as="geometry" />
        </mxCell>
        <mxCell id="vA187BcENQ-o6K3mdunK-2" value="" style="endArrow=classic;html=1;rounded=0;fillColor=#f8cecc;strokeColor=#00B800;strokeWidth=8;" edge="1" parent="1">
          <mxGeometry width="50" height="50" relative="1" as="geometry">
            <mxPoint x="160" y="230" as="sourcePoint" />
            <mxPoint x="210" y="280" as="targetPoint" />
          </mxGeometry>
        </mxCell>
        <mxCell id="vA187BcENQ-o6K3mdunK-7" value="" style="ellipse;whiteSpace=wrap;html=1;opacity=50;" vertex="1" parent="1">
          <mxGeometry x="110" y="100" width="60" height="50" as="geometry" />
        </mxCell>
        <mxCell id="vA187BcENQ-o6K3mdunK-3" value="" style="endArrow=classic;html=1;rounded=0;fillColor=#f8cecc;strokeColor=#00B800;strokeWidth=8;" edge="1" parent="1">
          <mxGeometry width="50" height="50" relative="1" as="geometry">
            <mxPoint x="159.99999999999977" y="150" as="sourcePoint" />
            <mxPoint x="209.99999999999977" y="200" as="targetPoint" />
          </mxGeometry>
        </mxCell>
        <mxCell id="vA187BcENQ-o6K3mdunK-6" value="" style="endArrow=classic;html=1;rounded=0;fillColor=#f8cecc;strokeColor=#00B800;strokeWidth=8;" edge="1" parent="1">
          <mxGeometry width="50" height="50" relative="1" as="geometry">
            <mxPoint x="79.99999999999977" y="140" as="sourcePoint" />
            <mxPoint x="129.99999999999977" y="190" as="targetPoint" />
          </mxGeometry>
        </mxCell>
        <mxCell id="vA187BcENQ-o6K3mdunK-8" value="" style="ellipse;whiteSpace=wrap;html=1;opacity=50;" vertex="1" parent="1">
          <mxGeometry x="28" y="101" width="60" height="50" as="geometry" />
        </mxCell>
        <mxCell id="vA187BcENQ-o6K3mdunK-9" value="" style="ellipse;whiteSpace=wrap;html=1;opacity=50;" vertex="1" parent="1">
          <mxGeometry x="108" y="187" width="60" height="50" as="geometry" />
        </mxCell>
        <mxCell id="vA187BcENQ-o6K3mdunK-10" value="" style="endArrow=classic;html=1;rounded=0;fillColor=#f8cecc;strokeColor=#00B800;strokeWidth=8;" edge="1" parent="1">
          <mxGeometry width="50" height="50" relative="1" as="geometry">
            <mxPoint x="689.9999999999998" y="100" as="sourcePoint" />
            <mxPoint x="743.333333333333" y="130" as="targetPoint" />
          </mxGeometry>
        </mxCell>
        <mxCell id="vA187BcENQ-o6K3mdunK-12" value="&lt;font style=&quot;font-size: 27px;&quot;&gt;greeen arrow denotes shifting vector&lt;/font&gt;" style="text;html=1;strokeColor=none;fillColor=none;align=left;verticalAlign=middle;whiteSpace=wrap;rounded=0;opacity=50;" vertex="1" parent="1">
          <mxGeometry x="690" y="157" width="570" height="30" as="geometry" />
        </mxCell>
        <mxCell id="vA187BcENQ-o6K3mdunK-13" value="" style="ellipse;whiteSpace=wrap;html=1;opacity=50;" vertex="1" parent="1">
          <mxGeometry x="455" y="190" width="60" height="50" as="geometry" />
        </mxCell>
        <mxCell id="vA187BcENQ-o6K3mdunK-14" value="" style="ellipse;whiteSpace=wrap;html=1;opacity=50;" vertex="1" parent="1">
          <mxGeometry x="540" y="187" width="60" height="50" as="geometry" />
        </mxCell>
        <mxCell id="vA187BcENQ-o6K3mdunK-15" value="" style="ellipse;whiteSpace=wrap;html=1;opacity=50;" vertex="1" parent="1">
          <mxGeometry x="543" y="276" width="60" height="50" as="geometry" />
        </mxCell>
      </root>
    </mxGraphModel>
  </diagram>
</mxfile>
